<svg width="40" height="36" viewBox="0 0 40 36" fill="none" xmlns="http://www.w3.org/2000/svg">
<rect width="40" height="36" rx="8" />
<path d="M21.6667 14.6667H25.8334M22.5 18H25.8334M24.1667 21.3333H25.8334M24.1667 25.5H15.8334C12.5 25.5 11.6667 24.6667 11.6667 21.3333V14.6667C11.6667 11.3333 12.5 10.5 15.8334 10.5H24.1667C27.5 10.5 28.3334 11.3333 28.3334 14.6667V21.3333C28.3334 24.6667 27.5 25.5 24.1667 25.5Z" stroke="currentColor" stroke-linecap="round" stroke-linejoin="round"/>
<path d="M20 21.6083C19.9439 21.0234 19.6849 20.4765 19.2679 20.0625C18.8508 19.6485 18.302 19.3935 17.7167 19.3417C17.2955 19.3 16.8712 19.3 16.45 19.3417C15.8652 19.395 15.3173 19.6505 14.9006 20.0642C14.4839 20.4779 14.2243 21.024 14.1667 21.6083M17.0834 17.4083C17.4834 17.4083 17.867 17.2494 18.1499 16.9665C18.4328 16.6837 18.5917 16.3 18.5917 15.9C18.5917 15.5 18.4328 15.1163 18.1499 14.8334C17.867 14.5506 17.4834 14.3917 17.0834 14.3917C16.6833 14.3917 16.2997 14.5506 16.0168 14.8334C15.7339 15.1163 15.575 15.5 15.575 15.9C15.575 16.3 15.7339 16.6837 16.0168 16.9665C16.2997 17.2494 16.6833 17.4083 17.0834 17.4083Z" stroke="currentColor" stroke-linecap="round" stroke-linejoin="round"/>
</svg>
