<svg width="20" height="20" viewBox="0 0 20 20" fill="none" xmlns="http://www.w3.org/2000/svg">
<g clip-path="url(#clip0_1982_4801)">
<path d="M6.06095 3.93708H4.78094V1.35169C4.78094 1.01529 5.05368 0.742554 5.39009 0.742554H5.45184C5.78825 0.742554 6.06098 1.01529 6.06098 1.35169L6.06095 3.93708Z" fill="#ACA6D6"/>
<path d="M5.45179 0.742554H5.39003C5.26906 0.742554 5.15663 0.778257 5.06183 0.839077C5.23062 0.947358 5.34277 1.13626 5.34277 1.35169V3.93708H6.06089V1.35169C6.06093 1.01529 5.7882 0.742554 5.45179 0.742554Z" fill="#978ECB"/>
<path d="M11.37 19.259H2.64716V4.72895C2.64716 4.32165 2.90727 3.95981 3.29333 3.83005L11.37 1.1152V19.259Z" fill="#C8EFFE"/>
<path d="M10.5281 1.39817V19.259H11.37V1.1152L10.5281 1.39817Z" fill="#99E6FC"/>
<path d="M17.4363 10.0644V19.259H11.3699V9.41483H16.7867C17.1457 9.41483 17.4363 9.70545 17.4363 10.0644Z" fill="white"/>
<path d="M16.7867 9.41461H15.9447C16.3036 9.41461 16.5945 9.70555 16.5945 10.0645V19.2589H17.4365V10.0645C17.4365 9.70559 17.1456 9.41461 16.7867 9.41461Z" fill="#DDF4FE"/>
<path d="M11.3699 19.259H19.2665C19.5098 19.259 19.707 19.0617 19.707 18.8185V17.4363H11.3699V19.259Z" fill="#B6C4CF"/>
<path d="M17.4363 15.2086V17.4363H15.5301V16.8359C15.5301 15.9351 16.2606 15.205 17.1613 15.205H17.3266C17.3633 15.205 17.4 15.2062 17.4363 15.2086Z" fill="#DDF4FE"/>
<path d="M18.8651 17.4364V18.8185C18.8651 19.0618 18.6678 19.259 18.4246 19.259H19.2665C19.5098 19.259 19.707 19.0618 19.707 18.8185V17.4364H18.8651Z" fill="#9FACBA"/>
<path d="M17.9105 15.2049H18.0759C18.9767 15.2049 19.707 15.9352 19.707 16.8361V17.4364H16.2793V16.8361C16.2793 15.9352 17.0096 15.2049 17.9105 15.2049Z" fill="#BBEC6C"/>
<path d="M18.0759 15.2049H17.9105C17.7945 15.2049 17.6814 15.2172 17.5722 15.2402C18.3107 15.396 18.8651 16.0512 18.8651 16.8361V17.4364H19.707V16.8361C19.707 15.9352 18.9767 15.2049 18.0759 15.2049Z" fill="#A2E62E"/>
<path d="M0.733477 19.259H2.64715V17.4364H0.292969V18.8185C0.292969 19.0617 0.490195 19.259 0.733477 19.259Z" fill="#B6C4CF"/>
<path d="M1.80518 17.4364H2.64713V19.259H1.80518V17.4364Z" fill="#9FACBA"/>
<path d="M2.4168 15.2049H2.64715V17.4364H0.292969V17.3287C0.292969 16.1558 1.24383 15.2049 2.4168 15.2049Z" fill="#BBEC6C"/>
<path d="M2.4168 15.2049C2.20414 15.2049 1.99895 15.2365 1.80524 15.2947V17.4364H2.64719V15.2049H2.4168Z" fill="#A2E62E"/>
<path d="M11.3699 1.1152L14.114 3.76767C14.2988 3.94634 14.4032 4.19243 14.4032 4.44954V9.41466H11.3699V1.1152Z" fill="#60B7FF"/>
<path d="M14.114 3.76763L11.37 1.11517V1.929L13.2721 3.76759C13.4569 3.94627 13.5614 4.19236 13.5614 4.44947V9.41459H14.4033V4.44951C14.4032 4.1924 14.2989 3.94635 14.114 3.76763Z" fill="#26A6FE"/>
<path d="M8.25299 19.259H4.78088V16.7701C4.78088 16.5771 4.9094 16.4078 5.09526 16.3559L7.8221 15.5947C8.03858 15.5342 8.25299 15.697 8.25299 15.9217V19.259Z" fill="#60B7FF"/>
<path d="M7.82211 15.5947L7.34918 15.7267C7.38774 15.7813 7.4111 15.8481 7.4111 15.9217V19.259H8.25305V15.9217C8.25301 15.697 8.0386 15.5342 7.82211 15.5947Z" fill="#26A6FE"/>
<path d="M15.8191 11.8312H12.946C12.8349 11.8312 12.7449 11.7412 12.7449 11.6301V10.9249C12.7449 10.8138 12.8349 10.7238 12.946 10.7238H15.8191C15.9302 10.7238 16.0202 10.8138 16.0202 10.9249V11.6301C16.0202 11.7412 15.9302 11.8312 15.8191 11.8312Z" fill="#C8EFFE"/>
<path d="M15.8191 10.7238H14.9771C15.0882 10.7238 15.1782 10.8139 15.1782 10.9249V11.6301C15.1782 11.7412 15.0882 11.8312 14.9771 11.8312H15.8191C15.9302 11.8312 16.0202 11.7412 16.0202 11.6301V10.9249C16.0202 10.8139 15.9302 10.7238 15.8191 10.7238Z" fill="#99E6FC"/>
<path d="M15.8191 14.059H12.946C12.8349 14.059 12.7449 13.9689 12.7449 13.8578V13.1526C12.7449 13.0415 12.8349 12.9515 12.946 12.9515H15.8191C15.9302 12.9515 16.0202 13.0415 16.0202 13.1526V13.8578C16.0202 13.9689 15.9302 14.059 15.8191 14.059Z" fill="#C8EFFE"/>
<path d="M15.8191 12.9515H14.9771C15.0882 12.9515 15.1782 13.0416 15.1782 13.1527V13.8578C15.1782 13.9689 15.0882 14.059 14.9771 14.059H15.8191C15.9302 14.059 16.0202 13.9689 16.0202 13.8578V13.1527C16.0202 13.0416 15.9302 12.9515 15.8191 12.9515Z" fill="#99E6FC"/>
<path d="M13.8963 16.3095H12.946C12.8349 16.3095 12.7449 16.2194 12.7449 16.1083V15.4031C12.7449 15.2921 12.8349 15.202 12.946 15.202H13.8963C14.0074 15.202 14.0975 15.2921 14.0975 15.4031V16.1083C14.0975 16.2194 14.0074 16.3095 13.8963 16.3095Z" fill="#C8EFFE"/>
<path d="M13.8963 15.202H13.0543C13.1654 15.202 13.2555 15.2921 13.2555 15.4032V16.1084C13.2555 16.2195 13.1654 16.3095 13.0543 16.3095H13.8963C14.0074 16.3095 14.0974 16.2195 14.0974 16.1084V15.4032C14.0974 15.2921 14.0074 15.202 13.8963 15.202Z" fill="#99E6FC"/>
<path d="M18.0759 14.9119C17.9197 14.9138 17.9369 14.9062 17.7293 14.9207V10.0644C17.7293 9.5447 17.3064 9.12185 16.7867 9.12185H14.407C14.4057 9.12185 14.4045 9.12165 14.4032 9.12165H11.6629V1.80583L13.9104 3.97829C14.0374 4.1011 14.1103 4.27282 14.1103 4.4495V8.03364C14.1103 8.19544 14.2414 8.32661 14.4032 8.32661C14.565 8.32661 14.6962 8.19544 14.6962 8.03364V4.4495C14.6962 4.11489 14.5582 3.78958 14.3176 3.557L11.5736 0.904542C11.5119 0.846652 11.3937 0.794698 11.2766 0.837472L6.35391 2.49216V1.35153C6.35762 0.853136 5.91043 0.419347 5.39023 0.449581C4.8927 0.449581 4.48789 0.85419 4.48789 1.35153V3.11939L3.19996 3.55232C2.69406 3.72239 2.35414 4.19521 2.35414 4.72896V14.9135C1.05043 14.9469 0 16.0171 0 17.3287V18.8184C0 19.2229 0.329023 19.5519 0.733437 19.5519H19.2665C19.671 19.5519 20 19.2229 20 18.8184V16.836C20 15.7751 19.1368 14.9119 18.0759 14.9119ZM18.0759 15.4979C18.8137 15.4979 19.4141 16.0982 19.4141 16.8361V17.1434H16.5723V16.8361C16.5729 16.0352 17.2766 15.4285 18.0759 15.4979ZM17.1434 10.0644V15.0719C16.4631 15.3688 15.9863 16.0476 15.9863 16.836V17.1434H11.6629V9.70778H16.7867C16.9834 9.70778 17.1434 9.86778 17.1434 10.0644ZM5.07383 1.35153C5.07383 1.17728 5.21578 1.03552 5.39023 1.03552C5.54691 1.01251 5.75789 1.13536 5.76797 1.35153V2.68911L5.07383 2.92243V1.35153ZM2.35418 15.4989V17.1434H0.595234C0.686367 16.241 1.43555 15.5299 2.35418 15.4989ZM0.585938 18.8185V17.7293H2.35418V18.966H0.733477C0.652109 18.966 0.585938 18.8998 0.585938 18.8185ZM2.94012 4.72896C2.94012 4.44716 3.11957 4.19755 3.38668 4.10775L11.077 1.52275V3.11903L4.6875 5.26681C4.53414 5.31833 4.4516 5.48446 4.50316 5.63786C4.5443 5.76028 4.65844 5.83755 4.78082 5.83755C4.81176 5.83755 4.84324 5.83263 4.87422 5.8222L11.077 3.73724V5.22767L4.6875 7.3754C4.53414 7.42696 4.4516 7.5931 4.50316 7.74646C4.5443 7.86888 4.65844 7.94614 4.78082 7.94614C4.81176 7.94614 4.84324 7.94122 4.87422 7.93079L11.077 5.84579V7.33622L4.6875 9.484C4.53414 9.53552 4.4516 9.70165 4.50316 9.85505C4.5443 9.97747 4.65844 10.0547 4.78082 10.0547C4.81176 10.0547 4.84324 10.0498 4.87422 10.0394L11.077 7.95442V9.41372C11.077 9.41411 11.077 9.41446 11.077 9.41486V9.44489L4.6875 11.5926C4.53414 11.6442 4.4516 11.8103 4.50316 11.9636C4.5443 12.0861 4.65844 12.1633 4.78082 12.1633C4.81176 12.1633 4.84324 12.1584 4.87422 12.148L11.077 10.063V11.5534L7.08723 12.8945C6.93387 12.9461 6.85133 13.1122 6.90289 13.2656C6.94402 13.388 7.05816 13.4653 7.18055 13.4653C7.21148 13.4653 7.24297 13.4604 7.27395 13.4499L11.077 12.1716V18.9659H8.54602V15.9217C8.54602 15.7222 8.45484 15.5385 8.2959 15.4179C8.13695 15.2972 7.93555 15.2588 7.74336 15.3125L5.01652 16.0737C4.70531 16.1606 4.48797 16.4469 4.48797 16.7701V18.9659H2.94012V4.72896ZM5.07391 16.7701C5.07391 16.7088 5.11512 16.6546 5.17406 16.6381L6.22398 16.345V18.966H5.07387L5.07391 16.7701ZM6.80992 18.966V16.1814L7.9009 15.8768C7.91563 15.8727 7.92937 15.8752 7.9416 15.8846C7.95383 15.8939 7.96004 15.9064 7.96004 15.9217V18.966H6.80992ZM11.6629 18.966V17.7293H15.9863V18.966H11.6629ZM19.4141 18.8185C19.4141 18.8999 19.3479 18.966 19.2666 18.966H16.5723V17.7293H19.4141V18.8185Z" fill="#101016"/>
<path d="M4.7808 14.2719C4.81174 14.2719 4.84322 14.267 4.8742 14.2566L5.96194 13.8909C6.11529 13.8394 6.19783 13.6733 6.14627 13.5199C6.09471 13.3665 5.92858 13.2839 5.77522 13.3355L4.68748 13.7012C4.53412 13.7527 4.45158 13.9188 4.50315 14.0722C4.54428 14.1946 4.65842 14.2719 4.7808 14.2719Z" fill="#101016"/>
<path d="M12.946 12.1242H15.8191C16.0915 12.1242 16.3132 11.9025 16.3132 11.6301V10.9249C16.3132 10.6525 16.0915 10.4308 15.8191 10.4308H12.946C12.6735 10.4308 12.4519 10.6525 12.4519 10.9249V11.6301C12.4519 11.9025 12.6735 12.1242 12.946 12.1242ZM13.0378 11.0168H15.7272V11.5382H13.0378V11.0168Z" fill="#101016"/>
<path d="M12.946 14.3519H15.8191C16.0915 14.3519 16.3132 14.1303 16.3132 13.8578V13.1526C16.3132 12.8802 16.0915 12.6586 15.8191 12.6586H12.946C12.6735 12.6586 12.4519 12.8802 12.4519 13.1526V13.8578C12.4519 14.1303 12.6735 14.3519 12.946 14.3519ZM13.0378 13.2445H15.7272V13.766H13.0378V13.2445Z" fill="#101016"/>
<path d="M12.946 16.6024H13.8963C14.1687 16.6024 14.3904 16.3808 14.3904 16.1084V15.4032C14.3904 15.1307 14.1687 14.9091 13.8963 14.9091H12.946C12.6735 14.9091 12.4519 15.1307 12.4519 15.4032V16.1084C12.4519 16.3808 12.6735 16.6024 12.946 16.6024ZM13.0378 15.495H13.8044V16.0165H13.0378V15.495Z" fill="#101016"/>
</g>
<defs>
<clipPath id="clip0_1982_4801">
<rect width="20" height="20" fill="white"/>
</clipPath>
</defs>
</svg>
