<svg width="20" height="20" viewBox="0 0 20 20" fill="none" xmlns="http://www.w3.org/2000/svg">
<path fill-rule="evenodd" clip-rule="evenodd" d="M7.15948 5.83625C7.15948 3.52477 9.04027 1.64422 11.3517 1.64422C13.6632 1.64422 15.5439 3.52477 15.5439 5.83625C15.5439 8.14781 13.6632 10.0285 11.3517 10.0285C9.04011 10.0285 7.15948 8.14781 7.15948 5.83625ZM13.2475 4.87461C13.3477 4.77437 13.3478 4.61227 13.2475 4.51203C13.1475 4.41211 12.9852 4.41203 12.8852 4.51203L10.7801 6.61715L9.81812 5.65508C9.71816 5.55512 9.55585 5.55504 9.45593 5.65508C9.35593 5.75516 9.35581 5.91758 9.45589 6.01766L10.5989 7.16055C10.6471 7.20875 10.7119 7.23578 10.7801 7.23578C10.8486 7.23578 10.9131 7.20898 10.9615 7.16055L13.2475 4.87461Z" fill="#00E499"/>
<path fill-rule="evenodd" clip-rule="evenodd" d="M14.7147 17.3536C14.7147 16.8006 15.1641 16.3512 15.717 16.3512C16.2697 16.3512 16.7191 16.8009 16.7191 17.3536C16.7191 17.9059 16.2694 18.3559 15.717 18.3559C15.1643 18.3559 14.7147 17.9062 14.7147 17.3536ZM8.44811 17.3536C8.44811 17.9062 7.99808 18.3559 7.44542 18.3559C6.89292 18.3559 6.44312 17.906 6.44312 17.3536C6.44312 16.8008 6.89269 16.3512 7.44542 16.3512C7.99835 16.3512 8.44811 16.8005 8.44811 17.3536Z" fill="#615260"/>
<path fill-rule="evenodd" clip-rule="evenodd" d="M4.18338 4.99879C4.14014 4.71078 4.23737 4.47098 4.44253 4.26688C4.67842 4.03219 4.97624 3.92848 5.3071 3.92848H7.05077L7.0176 4.00668C6.77186 4.5861 6.64698 5.20695 6.64698 5.83625C6.64698 8.43035 8.7576 10.541 11.3517 10.541C13.9461 10.541 16.0564 8.43063 16.0564 5.83625C16.0564 5.20703 15.9315 4.58621 15.6863 4.00664L15.6532 3.92848H17.3959C17.7265 3.92848 18.0256 4.03192 18.2612 4.26692C18.4671 4.47231 18.5635 4.71348 18.5187 5.00328L17.4021 12.2296C17.3887 12.3161 17.3622 12.3997 17.3235 12.4782C17.1323 12.8667 16.696 13.06 16.2787 13.06H6.42467C6.00717 13.06 5.57092 12.8664 5.37995 12.4777C5.34143 12.3993 5.31499 12.3159 5.30167 12.2296L4.18338 4.99903V4.99879Z" fill="#FFD266"/>
<path fill-rule="evenodd" clip-rule="evenodd" d="M9.4161 6.05742C9.29419 5.93531 9.29419 5.73742 9.4161 5.61531C9.53802 5.4934 9.73591 5.4934 9.85786 5.61531L10.7801 6.53758L12.8454 4.47227C12.9674 4.35035 13.1652 4.35035 13.2872 4.47227C13.4095 4.59438 13.4095 4.79227 13.2872 4.91438L11.0012 7.20031C10.9399 7.26145 10.8602 7.29203 10.7801 7.29203C10.7001 7.29203 10.6199 7.26145 10.5592 7.20031L9.4161 6.05742ZM18.4631 4.99473C18.5034 4.73441 18.4247 4.50941 18.2215 4.3068C18.0073 4.09316 17.729 3.98477 17.3959 3.98477H15.738C15.9789 4.5541 16.1126 5.18 16.1126 5.83629C16.1126 8.4616 13.9772 10.5972 11.3517 10.5972C8.72669 10.5972 6.59071 8.4616 6.59071 5.83629C6.59071 5.18 6.72435 4.5541 6.96583 3.98477H5.30708C4.97427 3.98477 4.69692 4.09313 4.4822 4.3068C4.27864 4.50926 4.19935 4.73426 4.23966 4.99457V4.99477L5.35728 12.2211C5.42739 12.6747 5.87626 13.0038 6.42474 13.0038H16.2787C16.8272 13.0038 17.2751 12.6747 17.3465 12.2211L18.4631 4.99473ZM11.3517 1.70047C9.07122 1.70047 7.21567 3.55582 7.21567 5.83625C7.21567 8.11688 9.07122 9.97223 11.3517 9.97223C13.6321 9.97223 15.4876 8.11688 15.4876 5.83625C15.4876 3.55582 13.6321 1.70047 11.3517 1.70047ZM16.6629 17.3536C16.6629 17.8749 16.2384 18.2997 15.717 18.2997C15.1951 18.2997 14.7709 17.8749 14.7709 17.3536C14.7709 16.8316 15.1951 16.4075 15.717 16.4075C16.2384 16.4075 16.6629 16.8316 16.6629 17.3536ZM8.39188 17.3536C8.39188 17.8749 7.96735 18.2997 7.44544 18.2997C6.92388 18.2997 6.49935 17.8749 6.49935 17.3536C6.49935 16.8316 6.92388 16.4075 7.44544 16.4075C7.96735 16.4075 8.39188 16.8316 8.39188 17.3536ZM18.6627 3.86395C18.3314 3.53406 17.8938 3.35981 17.3959 3.35981H15.4163C14.5791 1.99086 13.0705 1.07551 11.3517 1.07551C9.6329 1.07551 8.12442 1.99082 7.28727 3.35981H5.30708C4.82013 3.35981 4.39028 3.5275 4.06188 3.84438L3.74591 1.80285C3.68056 1.38145 3.29501 1.07555 2.8295 1.07555H1.20825C1.03563 1.07555 0.895752 1.21539 0.895752 1.38805C0.895752 1.56051 1.0356 1.70055 1.20825 1.70055H2.82946C2.98212 1.70055 3.11063 1.78566 3.12821 1.89844L3.62192 5.09016V5.09035L4.73954 12.3168C4.80509 12.7409 5.05517 13.1005 5.41267 13.3352C5.3497 13.382 5.28946 13.4336 5.2329 13.4895C4.90392 13.8141 4.72306 14.2461 4.72306 14.7054C4.72306 15.5691 5.36962 16.284 6.20403 16.3925C5.99774 16.6584 5.87435 16.9919 5.87435 17.3536C5.87435 18.2199 6.57895 18.9247 7.4454 18.9247C8.31185 18.9247 9.01681 18.2199 9.01681 17.3536C9.01681 16.9985 8.89802 16.6708 8.69884 16.4075H14.4633C14.2641 16.6708 14.1457 16.9985 14.1457 17.3536C14.1457 18.2199 14.8505 18.9247 15.717 18.9247C16.5832 18.9247 17.2878 18.2199 17.2878 17.3536C17.2878 16.4872 16.5832 15.7826 15.717 15.7826H6.42466C5.83099 15.7826 5.34806 15.2993 5.34806 14.7054C5.34806 14.4145 5.46302 14.1407 5.67192 13.9344C5.87513 13.7336 6.13966 13.6254 6.42083 13.6288H6.42466H16.2786C17.1377 13.6288 17.8462 13.0771 17.9634 12.3164L19.0819 5.09035C19.1533 4.63172 19.0068 4.20754 18.6627 3.86395Z" fill="black"/>
</svg>
