<svg width="20" height="20" viewBox="0 0 20 20" fill="none" xmlns="http://www.w3.org/2000/svg">
<g clip-path="url(#clip0_1982_4997)">
<path fill-rule="evenodd" clip-rule="evenodd" d="M10.0084 10.9518L13.8494 14.7928C13.9774 14.9164 14.149 14.9849 14.327 14.9833C14.505 14.9818 14.6753 14.9104 14.8012 14.7845C14.9271 14.6586 14.9985 14.4883 15 14.3103C15.0016 14.1322 14.9331 13.9607 14.8095 13.8327L10.9685 9.99169L14.8095 6.15071C14.9331 6.02265 15.0016 5.85114 15 5.67312C14.9985 5.49509 14.9271 5.32479 14.8012 5.19891C14.6753 5.07302 14.505 5.00161 14.327 5.00006C14.149 4.99852 13.9774 5.06695 13.8494 5.19064L10.0084 9.03162L6.16742 5.19064C6.03879 5.07001 5.86827 5.00416 5.69195 5.00703C5.51563 5.00989 5.34735 5.08124 5.2227 5.20598C5.09805 5.33071 5.02682 5.49905 5.02408 5.67537C5.02134 5.85169 5.08731 6.02216 5.20802 6.15071L9.04833 9.99169L5.20735 13.8327C5.1425 13.8953 5.09077 13.9702 5.05519 14.0531C5.0196 14.1359 5.00087 14.225 5.00009 14.3152C4.9993 14.4053 5.01648 14.4947 5.05062 14.5782C5.08476 14.6616 5.13518 14.7374 5.19893 14.8012C5.26268 14.8649 5.33849 14.9153 5.42193 14.9495C5.50538 14.9836 5.59479 15.0008 5.68494 15C5.77509 14.9992 5.86419 14.9805 5.94703 14.9449C6.02987 14.9093 6.10479 14.8576 6.16742 14.7928L10.0084 10.9518Z" fill="white"/>
</g>
<defs>
<clipPath id="clip0_1982_4997">
<rect width="20" height="20" fill="white"/>
</clipPath>
</defs>
</svg>
