<svg width="20" height="20" viewBox="0 0 20 20" fill="none" xmlns="http://www.w3.org/2000/svg">
<path d="M16.6538 19.6157H4.41577C3.65712 19.6157 3.04211 19.0007 3.04211 18.2421V1.75824C3.04211 0.999589 3.65712 0.384583 4.41577 0.384583H16.6538C17.4124 0.384583 18.0274 0.999589 18.0274 1.75824V18.2421C18.0274 19.0007 17.4124 19.6157 16.6538 19.6157Z" fill="#FCDD5E"/>
<path d="M16.6539 20H4.41581C3.44637 20 2.65759 19.2112 2.65759 18.2422V3.67382C2.65759 3.46123 2.82962 3.2892 3.04221 3.2892C3.25481 3.2892 3.42684 3.46123 3.42684 3.67382V18.2422C3.42684 18.7875 3.87043 19.2308 4.41581 19.2308H16.6539C17.1993 19.2308 17.6425 18.7875 17.6425 18.2422V1.75822C17.6425 1.21284 17.1993 0.769247 16.6539 0.769247H4.41581C3.87043 0.769247 3.42684 1.21284 3.42684 1.75822V2.01627C3.42684 2.22886 3.25481 2.40089 3.04221 2.40089C2.82962 2.40089 2.65759 2.22886 2.65759 2.01627V1.75822C2.6576 0.788778 3.44637 0 4.41581 0H16.6539C17.6229 0 18.4117 0.788778 18.4117 1.75822V18.2422C18.4117 19.2112 17.6229 20 16.6539 20Z" fill="#101016"/>
<path d="M4.11122 4.05846H1.97288C1.76029 4.05846 1.58826 3.88643 1.58826 3.67384C1.58826 3.46124 1.76029 3.28922 1.97288 3.28922H4.11122C4.32381 3.28922 4.49584 3.46124 4.49584 3.67384C4.49584 3.88643 4.32381 4.05846 4.11122 4.05846Z" fill="#101016"/>
<path d="M4.11122 7.22145H1.97288C1.76029 7.22145 1.58826 7.04942 1.58826 6.83683C1.58826 6.62424 1.76029 6.45221 1.97288 6.45221H4.11122C4.32381 6.45221 4.49584 6.62424 4.49584 6.83683C4.49584 7.04942 4.32381 7.22145 4.11122 7.22145Z" fill="#101016"/>
<path d="M4.11122 10.3844H1.97288C1.76029 10.3844 1.58826 10.2124 1.58826 9.99983C1.58826 9.78723 1.76029 9.6152 1.97288 9.6152H4.11122C4.32381 9.6152 4.49584 9.78723 4.49584 9.99983C4.49584 10.2124 4.32381 10.3844 4.11122 10.3844Z" fill="#101016"/>
<path d="M4.11122 13.5478H1.97288C1.76029 13.5478 1.58826 13.3758 1.58826 13.1632C1.58826 12.9506 1.76029 12.7786 1.97288 12.7786H4.11122C4.32381 12.7786 4.49584 12.9506 4.49584 13.1632C4.49584 13.3758 4.32381 13.5478 4.11122 13.5478Z" fill="#101016"/>
<path d="M4.11122 16.7112H1.97288C1.76029 16.7112 1.58826 16.5392 1.58826 16.3266C1.58826 16.114 1.76029 15.942 1.97288 15.942H4.11122C4.32381 15.942 4.49584 16.114 4.49584 16.3266C4.49584 16.5392 4.32381 16.7112 4.11122 16.7112Z" fill="#101016"/>
<path d="M14.6686 14.868H6.40101C6.17282 14.868 5.98241 14.6783 5.99673 14.4505C6.1743 11.626 8.13898 9.40121 10.5348 9.40121C12.9331 9.40121 14.8955 11.626 15.0729 14.4506C15.0872 14.6783 14.8968 14.868 14.6686 14.868Z" fill="white"/>
<path d="M14.6684 15.2523H6.40092C6.18232 15.2523 5.97123 15.1607 5.82173 15.0014C5.67374 14.8444 5.59937 14.6401 5.61289 14.4267C5.8037 11.3926 7.9657 9.01648 10.5345 9.01648C10.9905 9.01648 11.4427 9.0901 11.8769 9.23508C12.0782 9.30232 12.1872 9.52017 12.1203 9.7215C12.0527 9.9232 11.8356 10.0314 11.6335 9.96451C11.2774 9.84582 10.9078 9.78572 10.5345 9.78572C8.37061 9.78572 6.5459 11.8456 6.38064 14.4748L14.6684 14.4831C14.6016 13.0881 14.0404 11.7892 13.1487 10.9118C12.997 10.7631 12.9955 10.5189 13.1442 10.3679C13.2929 10.2162 13.5371 10.2154 13.6881 10.3634C14.7135 11.3723 15.358 12.8529 15.4565 14.4267C15.47 14.6401 15.3956 14.8444 15.2476 15.0014C15.0981 15.1607 14.887 15.2523 14.6684 15.2523Z" fill="#101016"/>
<path d="M10.5347 10.3922C11.9872 10.3922 13.1647 9.21468 13.1647 7.76217C13.1647 6.30966 11.9872 5.13217 10.5347 5.13217C9.08215 5.13217 7.90466 6.30966 7.90466 7.76217C7.90466 9.21468 9.08215 10.3922 10.5347 10.3922Z" fill="white"/>
<path d="M10.5345 10.7766C8.87239 10.7766 7.5202 9.42437 7.5202 7.76231C7.5202 6.09987 8.87239 4.74768 10.5345 4.74768C12.1969 4.74768 13.5491 6.09987 13.5491 7.76231C13.5491 9.42438 12.1969 10.7766 10.5345 10.7766ZM10.5345 5.51693C9.29645 5.51693 8.28945 6.52431 8.28945 7.76231C8.28945 9.00032 9.29645 10.0073 10.5345 10.0073C11.7725 10.0073 12.7798 9.00032 12.7798 7.76231C12.7798 6.52431 11.7725 5.51693 10.5345 5.51693Z" fill="#101016"/>
</svg>
