<svg width="20" height="20" viewBox="0 0 20 20" fill="none" xmlns="http://www.w3.org/2000/svg">
<g clip-path="url(#clip0_1982_4838)">
<path d="M19.0397 9.41976C19.0604 11.2688 18.5258 12.9918 17.5924 14.4324C17.2594 14.9464 17.8802 17.0402 18.4096 18.5815C18.6159 19.1819 17.9868 19.7267 17.4228 19.4353C15.9382 18.6682 13.8974 17.6996 13.4093 17.8985C12.1672 18.4046 10.7874 18.6425 9.34169 18.5401C4.82555 18.2204 1.20235 14.5181 0.971802 9.99651C0.704185 4.74776 4.9161 0.414952 10.1222 0.483702C14.9904 0.54796 18.9853 4.55136 19.0397 9.41976Z" fill="#7D92FB"/>
<path d="M8.32178 14.6183V9.4639C8.32178 8.83499 8.83162 8.32515 9.46053 8.32515H10.5394C11.1683 8.32515 11.6781 8.83499 11.6781 9.4639V14.6183C11.6781 15.2472 11.1683 15.757 10.5394 15.757H9.46053C8.83162 15.7571 8.32178 15.2472 8.32178 14.6183Z" fill="#FEFDFF"/>
<path d="M11.6833 5.4073C11.6926 4.48045 10.9487 3.72158 10.0219 3.71232C9.09508 3.70305 8.33623 4.44689 8.32696 5.37374C8.31769 6.30058 9.06152 7.05945 9.98834 7.06872C10.9152 7.07799 11.674 6.33415 11.6833 5.4073Z" fill="#FEFDFF"/>
<path d="M19.2775 9.41714C19.2218 4.42589 15.1161 0.311714 10.1253 0.245815C10.0826 0.245269 10.0402 0.244995 9.99765 0.244995C4.70578 0.244995 0.461362 4.66125 0.734331 10.0086C0.972261 14.6779 4.66554 18.4476 9.325 18.7775C10.7705 18.8796 12.1752 18.6582 13.4989 18.1188C13.5484 18.0994 14.0707 17.9712 17.3136 19.6467C17.4541 19.7194 17.603 19.755 17.7502 19.755C17.9684 19.755 18.1827 19.6766 18.3598 19.5236C18.6571 19.2669 18.7625 18.8764 18.6348 18.5043C17.5143 15.2432 17.7362 14.648 17.792 14.5618C18.7846 13.0302 19.2982 11.2512 19.2775 9.41714ZM18.1846 18.6589C18.2603 18.8792 18.1642 19.0639 18.0489 19.1634C17.9 19.2916 17.7071 19.3145 17.5322 19.224C14.9036 17.866 13.9575 17.6311 13.5684 17.6311C13.435 17.6311 13.3669 17.6587 13.3194 17.6783C12.0636 18.19 10.7315 18.4002 9.35843 18.3028C4.93855 17.99 1.43523 14.4138 1.20941 9.98445C0.946714 4.83406 5.08589 0.64898 10.119 0.721675C14.8537 0.784136 18.7487 4.68726 18.8017 9.42238C18.8212 11.1627 18.334 12.8502 17.3928 14.303C17.2789 14.4788 16.9324 15.0136 18.1846 18.6589Z" fill="#101016"/>
<path d="M10.5395 8.08722H9.46049C8.70138 8.08722 8.08392 8.70488 8.08392 9.46398V14.6182C8.08392 15.3773 8.70138 15.995 9.46049 15.995H10.5395C11.2986 15.995 11.916 15.3773 11.916 14.6182V9.46398C11.916 8.70488 11.2986 8.08722 10.5395 8.08722ZM11.4402 14.6182C11.4402 15.1151 11.0361 15.5192 10.5395 15.5192H9.46049C8.96384 15.5192 8.55974 15.1151 8.55974 14.6182V9.46398C8.55974 8.96714 8.96384 8.56304 9.46049 8.56304H10.5395C11.0361 8.56304 11.4402 8.96714 11.4402 9.46398V14.6182Z" fill="#101016"/>
<path d="M10.0001 3.47218C8.94361 3.47218 8.08392 4.33183 8.08392 5.38836C8.08392 6.44488 8.94357 7.30453 10.0001 7.30453C11.0566 7.30453 11.9161 6.44488 11.9161 5.38836C11.9161 4.33183 11.0566 3.47218 10.0001 3.47218ZM10.0001 6.82867C9.20588 6.82867 8.55978 6.18257 8.55978 5.38836C8.55978 4.59414 9.20588 3.94804 10.0001 3.94804C10.7942 3.94804 11.4403 4.59414 11.4403 5.38836C11.4403 6.18257 10.7942 6.82867 10.0001 6.82867Z" fill="#101016"/>
</g>
<defs>
<clipPath id="clip0_1982_4838">
<rect width="20" height="20" fill="white"/>
</clipPath>
</defs>
</svg>
