<svg width="20" height="20" viewBox="0 0 20 20" fill="none" xmlns="http://www.w3.org/2000/svg">
<path d="M13.875 16.8333C13.875 14.8917 11.9417 13.3083 9.55 13.3083C7.15833 13.3083 5.225 14.8833 5.225 16.8333M9.55 11.4417C10.171 11.4417 10.7667 11.195 11.2058 10.7558C11.645 10.3167 11.8917 9.72105 11.8917 9.1C11.8917 8.47895 11.645 7.88334 11.2058 7.44419C10.7667 7.00504 10.171 6.75833 9.55 6.75833C8.92895 6.75833 8.33334 7.00504 7.89419 7.44419C7.45504 7.88334 7.20833 8.47895 7.20833 9.1C7.20833 9.72105 7.45504 10.3167 7.89419 10.7558C8.33334 11.195 8.92895 11.4417 9.55 11.4417Z" stroke="currentColor" stroke-linecap="round" stroke-linejoin="round"/>
<path d="M17.5 10.4167C17.5 14.7917 13.9583 18.3333 9.58333 18.3333C5.20833 18.3333 1.66667 14.7917 1.66667 10.4167C1.66667 6.04167 5.20833 2.5 9.58333 2.5C10.675 2.5 11.7167 2.71667 12.6667 3.11667C12.5583 3.45 12.5 3.8 12.5 4.16667C12.5 4.79167 12.675 5.38333 12.9833 5.88333C13.15 6.16667 13.3667 6.425 13.6167 6.64167C14.2 7.175 14.975 7.5 15.8333 7.5C16.2 7.5 16.55 7.44167 16.875 7.325C17.275 8.275 17.5 9.325 17.5 10.4167Z" stroke="currentColor" stroke-linecap="round" stroke-linejoin="round"/>
<path d="M17.075 4.14999H14.5917M15.8333 2.93332V5.42499M19.1667 4.16665C19.1667 4.43332 19.1333 4.69165 19.0667 4.94165C18.9917 5.27498 18.8583 5.59999 18.6833 5.88332C18.2833 6.55832 17.6417 7.08332 16.875 7.32499C16.55 7.44165 16.2 7.49999 15.8333 7.49999C15.0129 7.5024 14.2215 7.19598 13.6167 6.64165C13.3667 6.42498 13.15 6.16665 12.9833 5.88332C12.6661 5.367 12.4988 4.77263 12.5 4.16665C12.5 3.79999 12.5583 3.44999 12.6667 3.11665C12.8869 2.45112 13.3116 1.8721 13.8802 1.4621C14.4488 1.05209 15.1323 0.832048 15.8333 0.833318C16.8167 0.833318 17.7083 1.25832 18.3083 1.94165C18.8417 2.53332 19.1667 3.31665 19.1667 4.16665Z" stroke="currentColor" stroke-miterlimit="10" stroke-linecap="round" stroke-linejoin="round"/>
</svg>
