<svg width="55" height="45" viewBox="0 0 55 45" fill="none" xmlns="http://www.w3.org/2000/svg">
<rect width="55" height="45" rx="5" />
<path d="M28.7975 16.1325L30.1175 18.7725C30.2975 19.14 30.7775 19.4925 31.1825 19.56L33.575 19.9575C35.105 20.2125 35.465 21.3225 34.3625 22.4175L32.5025 24.2775C32.1875 24.5925 32.015 25.2 32.1125 25.635L32.645 27.9375C33.065 29.76 32.0975 30.465 30.485 29.5125L28.2425 28.185C27.8375 27.945 27.17 27.945 26.7575 28.185L24.515 29.5125C22.91 30.465 21.935 29.7525 22.355 27.9375L22.8875 25.635C22.985 25.2 22.8125 24.5925 22.4975 24.2775L20.6375 22.4175C19.5425 21.3225 19.895 20.2125 21.425 19.9575L23.8175 19.56C24.215 19.4925 24.695 19.14 24.875 18.7725L26.195 16.1325C26.915 14.7 28.085 14.7 28.7975 16.1325Z" stroke="currentColor" stroke-width="1.5" stroke-linecap="round" stroke-linejoin="round"/>
</svg>
