<svg width="55" height="45" viewBox="0 0 55 45" fill="none" xmlns="http://www.w3.org/2000/svg">
<rect width="55" height="45" rx="5" />
<path d="M33.9425 30C33.9425 27.0975 31.055 24.75 27.5 24.75C23.945 24.75 21.0575 27.0975 21.0575 30M27.5 22.5C28.4946 22.5 29.4484 22.1049 30.1516 21.4017C30.8549 20.6984 31.25 19.7446 31.25 18.75C31.25 17.7554 30.8549 16.8016 30.1516 16.0983C29.4484 15.3951 28.4946 15 27.5 15C26.5054 15 25.5516 15.3951 24.8483 16.0983C24.1451 16.8016 23.75 17.7554 23.75 18.75C23.75 19.7446 24.1451 20.6984 24.8483 21.4017C25.5516 22.1049 26.5054 22.5 27.5 22.5Z" stroke="currentColor" stroke-width="1.5" stroke-linecap="round" stroke-linejoin="round"/>
</svg>
