<svg width="14" height="14" viewBox="0 0 14 14" fill="none" xmlns="http://www.w3.org/2000/svg">
<path d="M6.14248 2.93417C6.18547 2.89411 6.21994 2.84581 6.24385 2.79215C6.26777 2.73848 6.28062 2.68055 6.28166 2.6218C6.2827 2.56306 6.27189 2.50471 6.24989 2.45023C6.22788 2.39576 6.19513 2.34627 6.15359 2.30473C6.11204 2.26318 6.06256 2.23043 6.00808 2.20843C5.9536 2.18642 5.89525 2.17562 5.83651 2.17665C5.77777 2.17769 5.71983 2.19055 5.66617 2.21446C5.6125 2.23837 5.5642 2.27285 5.52415 2.31583L1.87831 5.96167C1.79639 6.0437 1.75037 6.15489 1.75037 6.27083C1.75037 6.38677 1.79639 6.49797 1.87831 6.58L5.52415 10.2258C5.5642 10.2688 5.6125 10.3033 5.66617 10.3272C5.71983 10.3511 5.77777 10.364 5.83651 10.365C5.89525 10.366 5.9536 10.3552 6.00808 10.3332C6.06256 10.3112 6.11204 10.2785 6.15359 10.2369C6.19513 10.1954 6.22788 10.1459 6.24989 10.0914C6.27189 10.037 6.2827 9.9786 6.28166 9.91986C6.28062 9.86112 6.26777 9.80318 6.24385 9.74952C6.21994 9.69585 6.18547 9.64755 6.14248 9.6075L3.24331 6.70833H9.91665C10.4193 6.70833 10.9013 6.90791 11.2568 7.2632C11.6123 7.61848 11.8122 8.10039 11.8125 8.603V11.2292C11.8125 11.3452 11.8586 11.4565 11.9406 11.5385C12.0227 11.6206 12.1339 11.6667 12.25 11.6667C12.366 11.6667 12.4773 11.6206 12.5593 11.5385C12.6414 11.4565 12.6875 11.3452 12.6875 11.2292V8.603C12.6872 7.86833 12.3951 7.16386 11.8755 6.64448C11.3559 6.1251 10.6513 5.83333 9.91665 5.83333H3.24331L6.14248 2.93417Z" fill="#8C8C8C"/>
</svg>
