<svg width="264" height="40" viewBox="0 0 264 40" fill="none" xmlns="http://www.w3.org/2000/svg">
<rect width="264" height="40" rx="20" fill="#6366F1"/>
<rect x="218" y="12" width="35" height="16" rx="8" fill="white"/>
<path d="M228.523 18.8008C228.523 18.543 228.482 18.3184 228.4 18.127C228.322 17.9355 228.213 17.7773 228.072 17.6523C227.936 17.5234 227.773 17.4277 227.586 17.3652C227.398 17.3027 227.195 17.2715 226.977 17.2715C226.789 17.2715 226.605 17.2969 226.426 17.3477C226.246 17.3984 226.07 17.4688 225.898 17.5586C225.73 17.6484 225.566 17.7559 225.406 17.8809C225.25 18.0059 225.104 18.1445 224.967 18.2969V17.2656C225.236 17.0039 225.537 16.8047 225.869 16.668C226.205 16.5273 226.613 16.457 227.094 16.457C227.438 16.457 227.756 16.5078 228.049 16.6094C228.342 16.707 228.596 16.8516 228.811 17.043C229.025 17.2344 229.193 17.4707 229.314 17.752C229.439 18.0332 229.502 18.3555 229.502 18.7188C229.502 19.0508 229.463 19.3516 229.385 19.6211C229.311 19.8906 229.195 20.1445 229.039 20.3828C228.887 20.6211 228.693 20.8496 228.459 21.0684C228.225 21.2871 227.949 21.5098 227.633 21.7363C227.238 22.0176 226.912 22.2578 226.654 22.457C226.4 22.6562 226.197 22.8438 226.045 23.0195C225.896 23.1914 225.791 23.3652 225.729 23.541C225.67 23.7129 225.641 23.9121 225.641 24.1387H229.824V25H224.639V24.584C224.639 24.2246 224.678 23.9082 224.756 23.6348C224.834 23.3613 224.963 23.1016 225.143 22.8555C225.322 22.6094 225.557 22.3633 225.846 22.1172C226.139 21.8711 226.496 21.5938 226.918 21.2852C227.223 21.0664 227.477 20.8574 227.68 20.6582C227.887 20.459 228.053 20.2598 228.178 20.0605C228.303 19.8613 228.391 19.6602 228.441 19.457C228.496 19.25 228.523 19.0312 228.523 18.8008ZM231.775 20.1719C231.596 20.1719 231.441 20.1074 231.312 19.9785C231.188 19.8496 231.125 19.6953 231.125 19.5156C231.125 19.3359 231.188 19.1836 231.312 19.0586C231.441 18.9336 231.596 18.8711 231.775 18.8711C231.959 18.8711 232.115 18.9336 232.244 19.0586C232.373 19.1836 232.438 19.3359 232.438 19.5156C232.438 19.6953 232.373 19.8496 232.244 19.9785C232.115 20.1074 231.959 20.1719 231.775 20.1719ZM231.775 25.1289C231.596 25.1289 231.441 25.0645 231.312 24.9355C231.188 24.8066 231.125 24.6523 231.125 24.4727C231.125 24.293 231.188 24.1387 231.312 24.0098C231.441 23.877 231.596 23.8105 231.775 23.8105C231.959 23.8105 232.115 23.877 232.244 24.0098C232.373 24.1387 232.438 24.293 232.438 24.4727C232.438 24.6523 232.373 24.8066 232.244 24.9355C232.115 25.0645 231.959 25.1289 231.775 25.1289ZM239.047 20.7637C239.047 21.4668 238.982 22.0898 238.854 22.6328C238.729 23.1758 238.545 23.6348 238.303 24.0098C238.064 24.3809 237.77 24.6641 237.418 24.8594C237.07 25.0508 236.674 25.1465 236.229 25.1465C235.807 25.1465 235.43 25.0547 235.098 24.8711C234.77 24.6836 234.492 24.4121 234.266 24.0566C234.039 23.7012 233.867 23.2656 233.75 22.75C233.633 22.2305 233.574 21.6367 233.574 20.9688C233.574 20.2344 233.635 19.5859 233.756 19.0234C233.881 18.4609 234.062 17.9902 234.301 17.6113C234.539 17.2285 234.834 16.9414 235.186 16.75C235.541 16.5547 235.947 16.457 236.404 16.457C238.166 16.457 239.047 17.8926 239.047 20.7637ZM238.062 20.8574C238.062 18.4668 237.494 17.2715 236.357 17.2715C235.158 17.2715 234.559 18.4883 234.559 20.9219C234.559 23.1914 235.146 24.3262 236.322 24.3262C237.482 24.3262 238.062 23.1699 238.062 20.8574ZM245.123 22.6211C245.123 23 245.051 23.3457 244.906 23.6582C244.766 23.9668 244.564 24.2324 244.303 24.4551C244.045 24.6738 243.734 24.8438 243.371 24.9648C243.008 25.0859 242.607 25.1465 242.17 25.1465C241.369 25.1465 240.732 24.9941 240.26 24.6895V23.6582C240.826 24.1035 241.475 24.3262 242.205 24.3262C242.498 24.3262 242.762 24.2891 242.996 24.2148C243.234 24.1406 243.438 24.0332 243.605 23.8926C243.777 23.752 243.908 23.582 243.998 23.3828C244.092 23.1836 244.139 22.959 244.139 22.709C244.139 21.6113 243.357 21.0625 241.795 21.0625H241.098V20.248H241.76C243.143 20.248 243.834 19.7324 243.834 18.7012C243.834 17.748 243.307 17.2715 242.252 17.2715C241.658 17.2715 241.102 17.4707 240.582 17.8691V16.9375C241.117 16.6172 241.754 16.457 242.492 16.457C242.844 16.457 243.162 16.5059 243.447 16.6035C243.732 16.7012 243.977 16.8379 244.18 17.0137C244.383 17.1895 244.539 17.4004 244.648 17.6465C244.762 17.8926 244.818 18.1641 244.818 18.4609C244.818 19.5664 244.26 20.2773 243.143 20.5938V20.6172C243.428 20.6484 243.691 20.7188 243.934 20.8281C244.176 20.9336 244.385 21.0723 244.561 21.2441C244.736 21.416 244.873 21.6191 244.971 21.8535C245.072 22.084 245.123 22.3398 245.123 22.6211Z" fill="#6366F1"/>
<path d="M202.651 22.0467H201.32V29H202.651V22.0467Z" fill="#9999FF"/>
<path d="M199.682 16.6527H198.351V28.9999H199.682V16.6527Z" fill="#9999FF"/>
<path d="M196.713 15.0932H195.383V28.9998H196.713V15.0932Z" fill="#9999FF"/>
<path d="M193.745 18.4069H192.414V28.9999H193.745V18.4069Z" fill="#9999FF"/>
<path d="M190.775 21.5953H189.444V28.9998H190.775V21.5953Z" fill="#9999FF"/>
<path d="M187.806 23.7032H186.475V28.9997H187.806V23.7032Z" fill="#9999FF"/>
<path d="M184.838 25.2977H183.507V28.9999H184.838V25.2977Z" fill="#9999FF"/>
<path d="M181.869 21.5953H180.538V28.9998H181.869V21.5953Z" fill="#9999FF"/>
<path d="M178.9 23.7032H177.569V28.9997H178.9V23.7032Z" fill="#9999FF"/>
<path d="M175.931 18.4069H174.6V28.9999H175.931V18.4069Z" fill="#9999FF"/>
<path d="M172.962 15.0932H171.631V28.9998H172.962V15.0932Z" fill="#9999FF"/>
<path d="M169.993 21.5953H168.662V28.9998H169.993V21.5953Z" fill="#9999FF"/>
<path d="M167.025 16.6527H165.694V28.9999H167.025V16.6527Z" fill="#9999FF"/>
<path d="M164.055 21.5953H162.724V28.9998H164.055V21.5953Z" fill="#9999FF"/>
<path d="M161.086 25.2977H159.755V28.9999H161.086V25.2977Z" fill="#9999FF"/>
<path d="M158.117 22.8262H156.787V28.9998H158.117V22.8262Z" fill="#9999FF"/>
<path d="M155.149 11.7796H153.818V28.9998H155.149V11.7796Z" fill="#9999FF"/>
<path d="M152.18 19.1865H150.849V28.9997H152.18V19.1865Z" fill="#9999FF"/>
<path d="M149.21 16.6527H147.879V28.9999H149.21V16.6527Z" fill="#9999FF"/>
<path d="M146.242 12.7544H144.911V29H146.242V12.7544Z" fill="#9999FF"/>
<path d="M143.273 16.6527H141.942V28.9999H143.273V16.6527Z" fill="#9999FF"/>
<path d="M140.304 21.5953H138.973V28.9998H140.304V21.5953Z" fill="#9999FF"/>
<path d="M137.336 24.0932H136.005V28.9998H137.336V24.0932Z" fill="#9999FF"/>
<path d="M134.366 25.9132H133.035V29H134.366V25.9132Z" fill="#9999FF"/>
<path d="M131.397 24.0932H130.066V28.9998H131.397V24.0932Z" fill="#9999FF"/>
<path d="M128.429 25.9132H127.098V29H128.429V25.9132Z" fill="#9999FF"/>
<path d="M125.46 14.1187H124.129V28.9999H125.46V14.1187Z" fill="#9999FF"/>
<path d="M122.491 16.6527H121.16V28.9999H122.491V16.6527Z" fill="#9999FF"/>
<path d="M119.521 11H118.191V28.9999H119.521V11Z" fill="#9999FF"/>
<path d="M116.552 15.0932H115.222V28.9998H116.552V15.0932Z" fill="#9999FF"/>
<path d="M113.584 19.1865H112.253V28.9997H113.584V19.1865Z" fill="#9999FF"/>
<path d="M110.615 21.5953H109.285V28.9998H110.615V21.5953Z" fill="#9999FF"/>
<path d="M107.647 23.7032H106.316V28.9997H107.647V23.7032Z" fill="white"/>
<path d="M104.677 16.6527H103.346V28.9999H104.677V16.6527Z" fill="white"/>
<path d="M101.709 25.2977H100.378V28.9999H101.709V25.2977Z" fill="white"/>
<path d="M98.7398 26.5466H97.4089V28.9999H98.7398V26.5466Z" fill="white"/>
<path d="M95.7708 23.7032H94.4399V28.9997H95.7708V23.7032Z" fill="white"/>
<path d="M92.8024 25.9132H91.4714V29H92.8024V25.9132Z" fill="white"/>
<path d="M89.8326 21.5953H88.5017V28.9998H89.8326V21.5953Z" fill="white"/>
<path d="M86.8642 17.6272H85.5332V28.9998H86.8642V17.6272Z" fill="white"/>
<path d="M83.8954 12.7544H82.5645V29H83.8954V12.7544Z" fill="white"/>
<path d="M80.9267 11H79.5958V28.9999H80.9267V11Z" fill="white"/>
<path d="M77.9572 18.4069H76.6263V28.9999H77.9572V18.4069Z" fill="white"/>
<path d="M74.9885 15.0932H73.6576V28.9998H74.9885V15.0932Z" fill="white"/>
<path d="M72.0197 21.5953H70.6888V28.9998H72.0197V21.5953Z" fill="white"/>
<path d="M69.051 25.2977H67.7201V28.9999H69.051V25.2977Z" fill="white"/>
<path d="M66.082 26.5466H64.7511V28.9999H66.082V26.5466Z" fill="white"/>
<path d="M63.1123 23.7032H61.7814V28.9997H63.1123V23.7032Z" fill="white"/>
<path d="M60.1441 21.5953H58.8131V28.9998H60.1441V21.5953Z" fill="white"/>
<path d="M57.1753 16.6527H55.8444V28.9999H57.1753V16.6527Z" fill="white"/>
<path d="M54.2066 11.7797H52.8757V28.9999H54.2066V11.7797Z" fill="white"/>
<path d="M51.2376 23.3135H49.9067V28.9998H51.2376V23.3135Z" fill="white"/>
<path d="M48.2679 21.5953H46.937V28.9998H48.2679V21.5953Z" fill="white"/>
<path d="M45.2994 25.2977H43.9685V28.9999H45.2994V25.2977Z" fill="white"/>
<path d="M42.3309 25.9132H41V29H42.3309V25.9132Z" fill="white"/>
<circle cx="20" cy="20" r="15" fill="white"/>
<path d="M19.1 24.74V15.26C19.1 14.36 18.72 14 17.76 14H15.34C14.38 14 14 14.36 14 15.26V24.74C14 25.64 14.38 26 15.34 26H17.76C18.72 26 19.1 25.64 19.1 24.74ZM26.0013 24.74V15.26C26.0013 14.36 25.6213 14 24.6613 14H22.2413C21.288 14 20.9013 14.36 20.9013 15.26V24.74C20.9013 25.64 21.2813 26 22.2413 26H24.6613C25.6213 26 26.0013 25.64 26.0013 24.74Z" fill="#6366F1"/>
</svg>
