<svg width="55" height="45" viewBox="0 0 55 45" fill="none" xmlns="http://www.w3.org/2000/svg">
<mask id="path-1-inside-1_4708_41" fill="white">
<!-- <path d="M55 38C55 41.866 51.866 45 48 45L7 45C3.13401 45 2.73984e-07 41.866 6.11959e-07 38L3.32207e-06 7C3.66004e-06 3.134 3.13401 -4.53427e-06 7 -4.19629e-06L48 -6.11959e-07C51.866 -2.73984e-07 55 3.13401 55 7L55 38Z"/> -->
</mask>
<path d="M55 38C55 41.866 51.866 45 48 45L7 45C3.13401 45 2.73984e-07 41.866 6.11959e-07 38L3.32207e-06 7C3.66004e-06 3.134 3.13401 -4.53427e-06 7 -4.19629e-06L48 -6.11959e-07C51.866 -2.73984e-07 55 3.13401 55 7L55 38Z" fill="url(#paint0_linear_4708_41)"/>
<path d="M55 45L0 45L55 45ZM3.32207e-06 7C3.75661e-06 2.02943 4.02944 -2 9 -2L46 -2C50.9706 -2 55 2.02944 55 7C55 4.23857 51.866 2 48 2L7 2C3.13401 2 3.56348e-06 4.23857 3.32207e-06 7ZM55 0L55 45L55 0ZM0 45L3.93402e-06 -4.80825e-06L0 45Z" fill="#6366F1" mask="url(#path-1-inside-1_4708_41)"/>
<path d="M28.2575 15.69L32.6825 17.655C33.9575 18.2175 33.9575 19.1475 32.6825 19.71L28.2575 21.675C27.755 21.9 26.93 21.9 26.4275 21.675L22.0025 19.71C20.7275 19.1475 20.7275 18.2175 22.0025 17.655L26.4275 15.69C26.93 15.465 27.755 15.465 28.2575 15.69Z" stroke="currentColor" stroke-width="1.5" stroke-linecap="round" stroke-linejoin="round"/>
<path d="M20.75 21.75C20.75 22.38 21.2225 23.1075 21.8 23.3625L26.8925 25.6275C27.2825 25.8 27.725 25.8 28.1075 25.6275L33.2 23.3625C33.7775 23.1075 34.25 22.38 34.25 21.75" stroke="currentColor" stroke-width="1.5" stroke-linecap="round" stroke-linejoin="round"/>
<path d="M20.75 25.5C20.75 26.1975 21.1625 26.8275 21.8 27.1125L26.8925 29.3775C27.2825 29.55 27.725 29.55 28.1075 29.3775L33.2 27.1125C33.8375 26.8275 34.25 26.1975 34.25 25.5" stroke="currentColor" stroke-width="1.5" stroke-linecap="round" stroke-linejoin="round"/>
<defs>
<!-- <linearGradient id="paint0_linear_4708_41" x1="25" y1="-2.14979e-06" x2="25" y2="45" gradientUnits="userSpaceOnUse">
<stop stop-color="#EAEAFD"/>
<stop offset="1" stop-color="white"/>
</linearGradient> -->
</defs>
</svg>
