<svg width="55" height="45" viewBox="0 0 55 45" fill="none" xmlns="http://www.w3.org/2000/svg">
<rect width="55" height="45" rx="5" />
<path d="M24.875 27.75H24.5C21.5 27.75 20 27 20 23.25V19.5C20 16.5 21.5 15 24.5 15H30.5C33.5 15 35 16.5 35 19.5V23.25C35 26.25 33.5 27.75 30.5 27.75H30.125C29.8925 27.75 29.6675 27.8625 29.525 28.05L28.4 29.55C27.905 30.21 27.095 30.21 26.6 29.55L25.475 28.05C25.355 27.885 25.0775 27.75 24.875 27.75Z" stroke="currentColor" stroke-width="1.5" stroke-miterlimit="10" stroke-linecap="round" stroke-linejoin="round"/>
<path d="M30.497 21.75H30.5045M27.4962 21.75H27.5037M24.4962 21.75H24.5022" stroke="currentColor" stroke-width="1.5" stroke-linecap="round" stroke-linejoin="round"/>
</svg>
