<svg width="30" height="30" viewBox="0 0 30 30" fill="none" xmlns="http://www.w3.org/2000/svg">
<path d="M14.1083 6.75L10 13.3333M9.50001 6.75H20.5C21.4167 6.75 22.1667 7.5 22.1667 8.41667V10.25C22.1667 10.9167 21.75 11.75 21.3333 12.1667L17.75 15.3333C17.25 15.75 16.9167 16.5833 16.9167 17.25V20.8333C16.9167 21.3333 16.5833 22 16.1667 22.25L15 23C13.9167 23.6667 12.4167 22.9167 12.4167 21.5833V17.1667C12.4167 16.5833 12.0833 15.8333 11.75 15.4167L8.58334 12.0833C8.16668 11.6667 7.83334 10.9167 7.83334 10.4167V8.5C7.83334 7.5 8.58334 6.75 9.50001 6.75Z" stroke="currentColor" stroke-width="1.5" stroke-miterlimit="10" stroke-linecap="round" stroke-linejoin="round"/>
</svg>
