<svg width="16" height="16" viewBox="0 0 16 16" fill="none" xmlns="http://www.w3.org/2000/svg">
<g clip-path="url(#clip0_4717_244)">
<path d="M0.338794 7.90425C0.338421 9.24856 0.689677 10.5612 1.35758 11.7181L0.274918 15.6711L4.32031 14.6104C5.43922 15.2195 6.69287 15.5387 7.96682 15.5388H7.97017C12.1758 15.5388 15.5992 12.1166 15.601 7.91026C15.6018 5.872 14.8087 3.95535 13.3679 2.51336C11.9273 1.0715 10.0113 0.277023 7.96986 0.276093C3.76379 0.276093 0.340592 3.69811 0.338856 7.90425" fill="url(#paint0_linear_4717_244)"/>
<path d="M0.0663566 7.90177C0.0659225 9.29445 0.429767 10.654 1.12149 11.8524L0 15.9471L4.19045 14.8484C5.34505 15.4779 6.64502 15.8098 7.96781 15.8103H7.97122C12.3277 15.8103 15.8741 12.265 15.876 7.90809C15.8767 5.79659 15.0551 3.81104 13.5628 2.3174C12.0703 0.823938 10.0858 0.000868217 7.97122 0C3.61402 0 0.068093 3.54481 0.0663566 7.90177ZM2.56192 11.646L2.40546 11.3976C1.74772 10.3518 1.40056 9.14326 1.40105 7.90226C1.40242 4.28087 4.34964 1.33457 7.97371 1.33457C9.72874 1.33532 11.3781 2.01947 12.6187 3.26078C13.8592 4.5022 14.5418 6.15243 14.5413 7.9076C14.5397 11.529 11.5924 14.4757 7.97122 14.4757H7.96862C6.78952 14.475 5.63312 14.1584 4.62462 13.56L4.38462 13.4177L1.89792 14.0696L2.56192 11.646Z" fill="url(#paint1_linear_4717_244)"/>
<path d="M5.99554 4.59834C5.84757 4.26947 5.69185 4.26283 5.55113 4.25707C5.43591 4.25211 5.30419 4.25248 5.17259 4.25248C5.04087 4.25248 4.82685 4.30203 4.64595 4.49955C4.46487 4.69725 3.95461 5.17502 3.95461 6.14674C3.95461 7.11846 4.66239 8.05763 4.76105 8.18953C4.85985 8.32119 6.12744 10.3791 8.13501 11.1708C9.80347 11.8287 10.143 11.6979 10.5051 11.6649C10.8673 11.632 11.6737 11.1872 11.8383 10.726C12.0029 10.2649 12.0029 9.86959 11.9536 9.78699C11.9042 9.7047 11.7725 9.65527 11.5749 9.55654C11.3774 9.45781 10.4063 8.97992 10.2253 8.914C10.0442 8.84814 9.91256 8.81527 9.78084 9.01304C9.64912 9.21049 9.27088 9.65527 9.1556 9.78699C9.04043 9.91902 8.92515 9.93545 8.72769 9.83666C8.53005 9.73756 7.89395 9.52925 7.13929 8.85645C6.55212 8.33291 6.15572 7.6864 6.0405 7.48863C5.92527 7.29118 6.02816 7.18414 6.12719 7.08572C6.21594 6.99722 6.32478 6.85508 6.42363 6.7398C6.52211 6.62445 6.55498 6.54215 6.62084 6.41043C6.68676 6.27859 6.65377 6.16324 6.60447 6.06445C6.55498 5.96566 6.17116 4.98885 5.99554 4.59834Z" fill="white"/>
</g>
<defs>
<linearGradient id="paint0_linear_4717_244" x1="766.579" y1="1539.78" x2="766.579" y2="0.276093" gradientUnits="userSpaceOnUse">
<stop stop-color="#1FAF38"/>
<stop offset="1" stop-color="#60D669"/>
</linearGradient>
<linearGradient id="paint1_linear_4717_244" x1="793.798" y1="1594.71" x2="793.798" y2="0" gradientUnits="userSpaceOnUse">
<stop stop-color="#F9F9F9"/>
<stop offset="1" stop-color="white"/>
</linearGradient>
<clipPath id="clip0_4717_244">
<rect width="15.876" height="16" fill="white"/>
</clipPath>
</defs>
</svg>
