<svg width="44" height="44" viewBox="0 0 44 44" fill="none" xmlns="http://www.w3.org/2000/svg">
<path d="M42 21C42 32.598 32.598 42 21 42C9.40202 42 0 32.598 0 21C0 9.40203 9.40202 1.52588e-05 21 1.52588e-05C32.598 1.52588e-05 42 9.40203 42 21ZM3.36 21C3.36 30.7423 11.2577 38.64 21 38.64C30.7423 38.64 38.64 30.7423 38.64 21C38.64 11.2577 30.7423 3.36002 21 3.36002C11.2577 3.36002 3.36 11.2577 3.36 21Z" fill="#E9E9FF"/>
<path d="M21 1.68C21 0.752166 21.7534 -0.00698185 22.6782 0.0671644C25.5217 0.295131 28.2951 1.10062 30.8265 2.44092C33.8539 4.04385 36.4432 6.36303 38.3687 9.19625C40.2941 12.0295 41.4973 15.2907 41.8732 18.6956C42.2491 22.1005 41.7863 25.5456 40.5253 28.7306C39.2643 31.9156 37.2432 34.7438 34.6384 36.9685C32.0336 39.1933 28.9241 40.747 25.581 41.4943C22.2379 42.2415 18.7628 42.1596 15.4587 41.2557C12.6959 40.4999 10.1227 39.1885 7.89387 37.4082C7.16891 36.8292 7.1394 35.76 7.77455 35.0837C8.4097 34.4073 9.46845 34.3811 10.2022 34.9491C12.025 36.3601 14.1113 37.4037 16.3453 38.0148C19.1208 38.7741 22.0399 38.8429 24.848 38.2152C27.6562 37.5875 30.2682 36.2823 32.4563 34.4136C34.6443 32.5448 36.342 30.1691 37.4013 27.4937C38.4605 24.8183 38.8492 21.9244 38.5335 19.0643C38.2177 16.2042 37.2071 13.4648 35.5897 11.0849C33.9723 8.70495 31.7973 6.75683 29.2543 5.41038C27.2074 4.32664 24.9722 3.65916 22.6775 3.43994C21.7539 3.35171 21 2.60784 21 1.68Z" fill="url(#paint0_radial_800_8977)"/>
<path d="M9.80475 19.51C9.84475 18.89 10.0814 18.4066 10.5147 18.06C10.9547 17.7133 11.5147 17.54 12.1947 17.54C12.6614 17.54 13.0647 17.6233 13.4047 17.79C13.7447 17.9566 14.0014 18.1833 14.1747 18.47C14.3481 18.7566 14.4347 19.08 14.4347 19.44C14.4347 19.8533 14.3247 20.2066 14.1047 20.5C13.8847 20.7933 13.6214 20.99 13.3147 21.09V21.13C13.7081 21.25 14.0147 21.47 14.2348 21.79C14.4547 22.1033 14.5647 22.5066 14.5647 23C14.5647 23.3933 14.4747 23.7433 14.2947 24.05C14.1147 24.3566 13.8481 24.6 13.4947 24.78C13.1414 24.9533 12.7181 25.04 12.2247 25.04C11.5047 25.04 10.9114 24.8566 10.4447 24.49C9.98475 24.1166 9.73808 23.5833 9.70475 22.89H10.8047C10.8314 23.2433 10.9681 23.5333 11.2147 23.76C11.4614 23.98 11.7947 24.09 12.2147 24.09C12.6214 24.09 12.9347 23.98 13.1547 23.76C13.3747 23.5333 13.4847 23.2433 13.4847 22.89C13.4847 22.4233 13.3347 22.0933 13.0347 21.9C12.7414 21.7 12.2881 21.6 11.6747 21.6H11.4147V20.66H11.6847C12.2247 20.6533 12.6347 20.5633 12.9147 20.39C13.2014 20.2166 13.3447 19.9433 13.3447 19.57C13.3447 19.25 13.2414 18.9966 13.0347 18.81C12.8281 18.6166 12.5347 18.52 12.1547 18.52C11.7814 18.52 11.4914 18.6166 11.2847 18.81C11.0781 18.9966 10.9547 19.23 10.9147 19.51H9.80475ZM16.0142 23.45C16.6542 22.8966 17.1576 22.4433 17.5242 22.09C17.8976 21.73 18.2076 21.3566 18.4542 20.97C18.7009 20.5833 18.8242 20.1966 18.8242 19.81C18.8242 19.41 18.7276 19.0966 18.5343 18.87C18.3476 18.6433 18.0509 18.53 17.6442 18.53C17.2509 18.53 16.9442 18.6566 16.7242 18.91C16.5109 19.1566 16.3976 19.49 16.3842 19.91H15.2842C15.3042 19.15 15.5309 18.57 15.9642 18.17C16.4042 17.7633 16.9609 17.56 17.6343 17.56C18.3609 17.56 18.9276 17.76 19.3342 18.16C19.7476 18.56 19.9542 19.0933 19.9542 19.76C19.9542 20.24 19.8309 20.7033 19.5842 21.15C19.3443 21.59 19.0543 21.9866 18.7142 22.34C18.3809 22.6866 17.9542 23.09 17.4342 23.55L16.9842 23.95H20.1542V24.9H15.2942V24.07L16.0142 23.45ZM21.3877 25.07C21.1811 25.07 21.0077 25 20.8677 24.86C20.7277 24.72 20.6577 24.5466 20.6577 24.34C20.6577 24.1333 20.7277 23.96 20.8677 23.82C21.0077 23.68 21.1811 23.61 21.3877 23.61C21.5877 23.61 21.7577 23.68 21.8977 23.82C22.0377 23.96 22.1077 24.1333 22.1077 24.34C22.1077 24.5466 22.0377 24.72 21.8977 24.86C21.7577 25 21.5877 25.07 21.3877 25.07ZM21.3877 20.87C21.1811 20.87 21.0077 20.8 20.8677 20.66C20.7277 20.52 20.6577 20.3466 20.6577 20.14C20.6577 19.9333 20.7277 19.76 20.8677 19.62C21.0077 19.48 21.1811 19.41 21.3877 19.41C21.5877 19.41 21.7577 19.48 21.8977 19.62C22.0377 19.76 22.1077 19.9333 22.1077 20.14C22.1077 20.3466 22.0377 20.52 21.8977 20.66C21.7577 20.8 21.5877 20.87 21.3877 20.87ZM22.7009 18.75V17.71H24.7809V25H23.6309V18.75H22.7009ZM25.969 21.26C25.969 20.1066 26.1623 19.2066 26.549 18.56C26.9423 17.9066 27.6157 17.58 28.569 17.58C29.5223 17.58 30.1923 17.9066 30.579 18.56C30.9723 19.2066 31.169 20.1066 31.169 21.26C31.169 22.4266 30.9723 23.34 30.579 24C30.1923 24.6533 29.5223 24.98 28.569 24.98C27.6157 24.98 26.9423 24.6533 26.549 24C26.1623 23.34 25.969 22.4266 25.969 21.26ZM30.049 21.26C30.049 20.72 30.0123 20.2633 29.939 19.89C29.8723 19.5166 29.7323 19.2133 29.519 18.98C29.3057 18.74 28.989 18.62 28.569 18.62C28.149 18.62 27.8323 18.74 27.619 18.98C27.4057 19.2133 27.2623 19.5166 27.189 19.89C27.1223 20.2633 27.089 20.72 27.089 21.26C27.089 21.82 27.1223 22.29 27.189 22.67C27.2557 23.05 27.3957 23.3566 27.609 23.59C27.829 23.8233 28.149 23.94 28.569 23.94C28.989 23.94 29.3057 23.8233 29.519 23.59C29.739 23.3566 29.8823 23.05 29.949 22.67C30.0157 22.29 30.049 21.82 30.049 21.26Z" fill="#070417"/>
<defs>
<radialGradient id="paint0_radial_800_8977" cx="0" cy="0" r="1" gradientUnits="userSpaceOnUse" gradientTransform="translate(5.775 -17.85) rotate(42.7688) scale(57.213)">
<stop stop-color="white"/>
<stop offset="1" stop-color="#7012CE"/>
</radialGradient>
</defs>
</svg>
