    <svg width="40" height="36" viewBox="0 0 40 36" fill="none" xmlns="http://www.w3.org/2000/svg">
    <path d="M0 18C0 12.4087 0 9.61305 0.913446 7.4078C2.13137 4.46746 4.46746 2.13137 7.4078 0.913446C9.61305 0 12.4087 0 18 0H22C27.5913 0 30.3869 0 32.5922 0.913446C35.5325 2.13137 37.8686 4.46746 39.0866 7.4078C40 9.61305 40 12.4087 40 18C40 23.5913 40 26.3869 39.0866 28.5922C37.8686 31.5325 35.5325 33.8686 32.5922 35.0866C30.3869 36 27.5913 36 22 36H18C12.4087 36 9.61305 36 7.4078 35.0866C4.46746 33.8686 2.13137 31.5325 0.913446 28.5922C0 26.3869 0 23.5913 0 18Z" />
    <path d="M14.1667 15.5V21.3333M14.1667 21.3333C14.8297 21.3333 15.4656 21.5967 15.9345 22.0656C16.4033 22.5344 16.6667 23.1703 16.6667 23.8333C16.6667 24.4964 16.4033 25.1323 15.9345 25.6011C15.4656 26.0699 14.8297 26.3333 14.1667 26.3333C13.5036 26.3333 12.8678 26.0699 12.3989 25.6011C11.9301 25.1323 11.6667 24.4964 11.6667 23.8333C11.6667 23.1703 11.9301 22.5344 12.3989 22.0656C12.8678 21.5967 13.5036 21.3333 14.1667 21.3333ZM14.375 15.0833C15.0933 15.0833 15.7822 14.798 16.2901 14.2901C16.798 13.7822 17.0834 13.0933 17.0834 12.375C17.0834 11.6567 16.798 10.9678 16.2901 10.4599C15.7822 9.95201 15.0933 9.66667 14.375 9.66667C13.6567 9.66667 12.9679 9.95201 12.4599 10.4599C11.952 10.9678 11.6667 11.6567 11.6667 12.375C11.6667 13.0933 11.952 13.7822 12.4599 14.2901C12.9679 14.798 13.6567 15.0833 14.375 15.0833ZM25.8334 26.3333C26.4964 26.3333 27.1323 26.0699 27.6011 25.6011C28.07 25.1323 28.3334 24.4964 28.3334 23.8333C28.3334 23.1703 28.07 22.5344 27.6011 22.0656C27.1323 21.5967 26.4964 21.3333 25.8334 21.3333C25.1703 21.3333 24.5344 21.5967 24.0656 22.0656C23.5967 22.5344 23.3334 23.1703 23.3334 23.8333C23.3334 24.4964 23.5967 25.1323 24.0656 25.6011C24.5344 26.0699 25.1703 26.3333 25.8334 26.3333Z" stroke="currentColor" stroke-linecap="round" stroke-linejoin="round"/>
    <path d="M14.275 15.5C14.4634 16.2269 14.8883 16.8704 15.4828 17.329C16.0773 17.7877 16.8075 18.0355 17.5584 18.0333L20.4167 18.025C21.4539 18.022 22.4662 18.3422 23.313 18.9411C24.1598 19.5399 24.799 20.3878 25.1417 21.3667" stroke="currentColor" stroke-linecap="round" stroke-linejoin="round"/>
    </svg>
