<svg width="40" height="36" viewBox="0 0 40 36" fill="none" xmlns="http://www.w3.org/2000/svg">
<path d="M0 18C0 12.4087 0 9.61305 0.913446 7.4078C2.13137 4.46746 4.46746 2.13137 7.4078 0.913446C9.61305 0 12.4087 0 18 0H22C27.5913 0 30.3869 0 32.5922 0.913446C35.5325 2.13137 37.8686 4.46746 39.0866 7.4078C40 9.61305 40 12.4087 40 18C40 23.5913 40 26.3869 39.0866 28.5922C37.8686 31.5325 35.5325 33.8686 32.5922 35.0866C30.3869 36 27.5913 36 22 36H18C12.4087 36 9.61305 36 7.4078 35.0866C4.46746 33.8686 2.13137 31.5325 0.913446 28.5922C0 26.3869 0 23.5913 0 18Z" />
<path d="M11.6667 18.9167L13.75 17.6667C15.0334 16.9 16.6334 16.9 17.9167 17.6667C19.2 18.4333 20.8 18.4333 22.0834 17.6667C23.3667 16.9 24.9667 16.9 26.25 17.6667L28.3334 18.9167M11.6667 11.25L13.75 12.5C15.0334 13.2667 16.6334 13.2667 17.9167 12.5C19.2 11.7333 20.8 11.7333 22.0834 12.5C23.3667 13.2667 24.9667 13.2667 26.25 12.5L28.3334 11.25M11.6667 24.75L13.75 23.5C15.0334 22.7333 16.6334 22.7333 17.9167 23.5C19.2 24.2667 20.8 24.2667 22.0834 23.5C23.3667 22.7333 24.9667 22.7333 26.25 23.5L28.3334 24.75" stroke="currentColor" stroke-miterlimit="10" stroke-linecap="round" stroke-linejoin="round"/>
</svg>
