<svg width="40" height="36" viewBox="0 0 40 36" fill="none" xmlns="http://www.w3.org/2000/svg">
<path d="M0 18C0 12.4087 0 9.61305 0.913446 7.4078C2.13137 4.46746 4.46746 2.13137 7.4078 0.913446C9.61305 0 12.4087 0 18 0H22C27.5913 0 30.3869 0 32.5922 0.913446C35.5325 2.13137 37.8686 4.46746 39.0866 7.4078C40 9.61305 40 12.4087 40 18C40 23.5913 40 26.3869 39.0866 28.5922C37.8686 31.5325 35.5325 33.8686 32.5922 35.0866C30.3869 36 27.5913 36 22 36H18C12.4087 36 9.61305 36 7.4078 35.0866C4.46746 33.8686 2.13137 31.5325 0.913446 28.5922C0 26.3869 0 23.5913 0 18Z" />
<path d="M17.5 26.3333H22.5C25 26.3333 25.8334 25.5 25.8334 23V13C25.8334 10.5 25 9.66667 22.5 9.66667H17.5C15 9.66667 14.1667 10.5 14.1667 13V23C14.1667 25.5 15 26.3333 17.5 26.3333Z" stroke="currentColor" stroke-miterlimit="10" stroke-linecap="round" stroke-linejoin="round"/>
<path d="M20 23C20.663 23 21.2989 22.7366 21.7678 22.2678C22.2366 21.7989 22.5 21.163 22.5 20.5C22.5 19.837 22.2366 19.2011 21.7678 18.7322C21.2989 18.2634 20.663 18 20 18C19.337 18 18.7011 18.2634 18.2322 18.7322C17.7634 19.2011 17.5 19.837 17.5 20.5C17.5 21.163 17.7634 21.7989 18.2322 22.2678C18.7011 22.7366 19.337 23 20 23ZM20 15.5C20.3315 15.5 20.6495 15.3683 20.8839 15.1339C21.1183 14.8995 21.25 14.5815 21.25 14.25C21.25 13.9185 21.1183 13.6005 20.8839 13.3661C20.6495 13.1317 20.3315 13 20 13C19.6685 13 19.3505 13.1317 19.1161 13.3661C18.8817 13.6005 18.75 13.9185 18.75 14.25C18.75 14.5815 18.8817 14.8995 19.1161 15.1339C19.3505 15.3683 19.6685 15.5 20 15.5Z" stroke="currentColor" stroke-miterlimit="10" stroke-linecap="round" stroke-linejoin="round"/>
</svg>
