<svg width="40" height="36" viewBox="0 0 40 36" fill="none" xmlns="http://www.w3.org/2000/svg" stroke="currentColor">
<!-- <rect width="40" height="36" rx="8" /> -->
<path d="M20.9917 13H15.6584C15.4417 13 15.2334 13.0083 15.0334 13.0333C12.7917 13.225 11.6667 14.55 11.6667 16.9917V20.325C11.6667 23.6583 13 24.3167 15.6584 24.3167H15.9917C16.175 24.3167 16.4167 24.4417 16.525 24.5833L17.525 25.9167C17.9667 26.5083 18.6834 26.5083 19.125 25.9167L20.125 24.5833C20.25 24.4167 20.45 24.3167 20.6584 24.3167H20.9917C23.4334 24.3167 24.7584 23.2 24.95 20.95C24.975 20.75 24.9834 20.5417 24.9834 20.325V16.9917C24.9834 14.3333 23.65 13 20.9917 13ZM15.4167 19.6667C14.95 19.6667 14.5834 19.2917 14.5834 18.8333C14.5834 18.375 14.9584 18 15.4167 18C15.875 18 16.25 18.375 16.25 18.8333C16.25 19.2917 15.875 19.6667 15.4167 19.6667ZM18.325 19.6667C17.8584 19.6667 17.4917 19.2917 17.4917 18.8333C17.4917 18.375 17.8667 18 18.325 18C18.7834 18 19.1584 18.375 19.1584 18.8333C19.1584 19.2917 18.7917 19.6667 18.325 19.6667ZM21.2417 19.6667C20.775 19.6667 20.4084 19.2917 20.4084 18.8333C20.4084 18.375 20.7834 18 21.2417 18C21.7 18 22.075 18.375 22.075 18.8333C22.075 19.2917 21.7 19.6667 21.2417 19.6667Z" fill="white"/>
<path d="M28.3166 13.6583V16.9917C28.3166 18.6583 27.8 19.7917 26.7666 20.4167C26.5166 20.5667 26.225 20.3667 26.225 20.075L26.2333 16.9917C26.2333 13.6583 24.325 11.75 20.9916 11.75L15.9166 11.7583C15.625 11.7583 15.425 11.4667 15.575 11.2167C16.2 10.1833 17.3333 9.66666 18.9916 9.66666H24.325C26.9833 9.66666 28.3166 11 28.3166 13.6583Z" fill="white"/>
</svg>
