<svg width="18" height="18" viewBox="0 0 18 18" fill="none" xmlns="http://www.w3.org/2000/svg">
<path d="M4.30499 12C4.38749 11.6325 4.23749 11.1075 3.97499 10.845L2.15249 9.0225C1.58249 8.4525 1.35749 7.845 1.52249 7.32C1.69499 6.795 2.22749 6.435 3.02249 6.3L5.36249 5.91C5.69999 5.85 6.11248 5.55 6.26998 5.2425L7.55998 2.655C7.93498 1.9125 8.44498 1.5 8.99998 1.5C9.55499 1.5 10.065 1.9125 10.44 2.655L11.73 5.2425C11.8275 5.4375 12.03 5.625 12.2475 5.7525L4.16999 13.83C4.06499 13.935 3.88499 13.8375 3.91499 13.6875L4.30499 12ZM14.025 10.8465C13.755 11.1165 13.605 11.634 13.695 12.0015L14.2125 14.259C14.43 15.1965 14.295 15.9015 13.83 16.239C13.6325 16.377 13.3959 16.448 13.155 16.4415C12.7725 16.4415 12.3225 16.299 11.8275 16.0065L9.62998 14.7015C9.28498 14.499 8.71498 14.499 8.36998 14.7015L6.17248 16.0065C5.33999 16.494 4.62749 16.5765 4.16999 16.239C3.99749 16.1115 3.86999 15.939 3.78749 15.714L12.9075 6.594C13.2525 6.249 13.74 6.0915 14.2125 6.174L14.97 6.3015C15.765 6.4365 16.2975 6.7965 16.47 7.3215C16.635 7.8465 16.41 8.454 15.84 9.024L14.025 10.8465Z" fill="#C6C6C6"/>
<path d="M14.0248 10.8463C13.7548 11.1163 13.6048 11.6338 13.6948 12.0013L14.2123 14.2588C14.4298 15.1963 14.2948 15.9013 13.8298 16.2388C13.6323 16.3769 13.3957 16.4479 13.1548 16.4413C12.7723 16.4413 12.3223 16.2988 11.8273 16.0063L9.62982 14.7013C9.28482 14.4988 8.71482 14.4988 8.36982 14.7013L6.17232 16.0063C5.33982 16.4938 4.62732 16.5763 4.16982 16.2388C3.99732 16.1113 3.86982 15.9388 3.78732 15.7138L12.9073 6.59385C13.2523 6.24885 13.7398 6.09135 14.2123 6.17385L14.9698 6.30135C15.7648 6.43635 16.2973 6.79635 16.4698 7.32135C16.6348 7.84635 16.4098 8.45385 15.8398 9.02385L14.0248 10.8463Z" fill="#FFD465"/>
</svg>
