<svg width="24" height="24" viewBox="0 0 24 24" fill="none" xmlns="http://www.w3.org/2000/svg">
<mask id="mask0_1982_4905" style="mask-type:luminance" maskUnits="userSpaceOnUse" x="4" y="0" width="16" height="10">
<path d="M4.61664 0.799957H19.2833V9.10517H4.61664V0.799957Z" fill="white"/>
</mask>
<g mask="url(#mask0_1982_4905)">
<path d="M19.1105 4.94475L11.9261 0.799957L4.87091 5.03746L11.922 9.08433L19.1105 4.94475Z" fill="#6366F1"/>
</g>
<mask id="mask1_1982_4905" style="mask-type:luminance" maskUnits="userSpaceOnUse" x="1" y="5" width="22" height="18">
<path d="M1.59998 5.37186H22.2V23H1.59998V5.37186Z" fill="white"/>
</mask>
<g mask="url(#mask1_1982_4905)">
<path d="M11.9258 11.5562L11.8685 17.627L11.8644 17.8885L11.38 11.2281L1.63103 5.5916L1.60394 5.5791V16.8989C2.51853 17.401 3.41957 17.9291 4.3154 18.4562C3.61436 19.9301 2.74873 21.3187 2.08311 22.8103C3.94248 22.1531 5.75811 21.3635 7.60394 20.6708C7.95394 20.4843 8.2779 20.7416 8.57998 20.9062C8.8904 21.0926 9.20603 21.2749 9.51644 21.4562L11.9258 22.9968L22.2748 16.9218H22.2789L22.2925 5.58743C18.8269 7.55306 15.3737 9.55514 11.9258 11.5562ZM17.881 15.026C17.5842 15.026 17.3269 14.8447 17.2112 14.5874C17.1716 14.4978 17.1539 14.401 17.1539 14.2947C17.1539 13.8906 17.4821 13.5624 17.8862 13.5624C17.9696 13.5624 18.0539 13.5749 18.13 13.6062C18.4133 13.7041 18.6133 13.9749 18.6133 14.2947C18.6091 14.6979 18.2852 15.026 17.881 15.026Z" fill="#6366F1"/>
</g>
</svg>
