<svg width="14" height="14" viewBox="0 0 14 14" fill="none" xmlns="http://www.w3.org/2000/svg">
<g clip-path="url(#clip0_1982_4919)">
<path fill-rule="evenodd" clip-rule="evenodd" d="M7.41239 9.16242C7.303 9.27178 7.15465 9.33322 6.99998 9.33322C6.8453 9.33322 6.69695 9.27178 6.58756 9.16242L3.28764 5.86251C3.23193 5.8087 3.18749 5.74433 3.15692 5.67316C3.12635 5.60199 3.11025 5.52545 3.10958 5.44799C3.10891 5.37054 3.12367 5.29372 3.153 5.22203C3.18233 5.15034 3.22564 5.08521 3.28041 5.03044C3.33518 4.97567 3.40031 4.93236 3.472 4.90303C3.54369 4.8737 3.62051 4.85894 3.69796 4.85961C3.77541 4.86028 3.85196 4.87638 3.92313 4.90695C3.9943 4.93752 4.05867 4.98196 4.11248 5.03767L6.99998 7.92517L9.88748 5.03767C9.99749 4.93141 10.1448 4.87262 10.2978 4.87395C10.4507 4.87528 10.597 4.93662 10.7052 5.04478C10.8134 5.15293 10.8747 5.29924 10.876 5.45219C10.8774 5.60514 10.8186 5.75249 10.7123 5.86251L7.41239 9.16242Z" fill="#48535B"/>
</g>
<defs>
<clipPath id="clip0_1982_4919">
<rect width="14" height="14" fill="white"/>
</clipPath>
</defs>
</svg>
