<svg width="40" height="40" viewBox="0 0 40 40" fill="none" xmlns="http://www.w3.org/2000/svg">
<g clip-path="url(#clip0_1982_4799)">
<path d="M16.0609 13.9371H14.7809V11.3517C14.7809 11.0153 15.0537 10.7426 15.3901 10.7426H15.4518C15.7882 10.7426 16.061 11.0153 16.061 11.3517L16.0609 13.9371Z" fill="#ACA6D6"/>
<path d="M15.4518 10.7426H15.39C15.2691 10.7426 15.1566 10.7783 15.0618 10.8391C15.2306 10.9474 15.3428 11.1363 15.3428 11.3517V13.9371H16.0609V11.3517C16.0609 11.0153 15.7882 10.7426 15.4518 10.7426Z" fill="#978ECB"/>
<path d="M21.37 29.259H12.6472V14.729C12.6472 14.3216 12.9073 13.9598 13.2933 13.83L21.37 11.1152V29.259Z" fill="#C8EFFE"/>
<path d="M20.5281 11.3982V29.259H21.37V11.1152L20.5281 11.3982Z" fill="#99E6FC"/>
<path d="M27.4363 20.0644V29.259H21.3699V19.4148H26.7867C27.1457 19.4148 27.4363 19.7055 27.4363 20.0644Z" fill="white"/>
<path d="M26.7867 19.4146H25.9447C26.3036 19.4146 26.5945 19.7055 26.5945 20.0645V29.2589H27.4365V20.0645C27.4365 19.7056 27.1456 19.4146 26.7867 19.4146Z" fill="#DDF4FE"/>
<path d="M21.3699 29.259H29.2665C29.5098 29.259 29.707 29.0617 29.707 28.8185V27.4363H21.3699V29.259Z" fill="#B6C4CF"/>
<path d="M27.4363 25.2086V27.4363H25.5301V26.8359C25.5301 25.9351 26.2606 25.205 27.1613 25.205H27.3266C27.3633 25.205 27.4 25.2062 27.4363 25.2086Z" fill="#DDF4FE"/>
<path d="M28.8651 27.4364V28.8185C28.8651 29.0618 28.6678 29.259 28.4246 29.259H29.2665C29.5098 29.259 29.707 29.0618 29.707 28.8185V27.4364H28.8651Z" fill="#9FACBA"/>
<path d="M27.9105 25.2049H28.0759C28.9767 25.2049 29.707 25.9352 29.707 26.8361V27.4364H26.2793V26.8361C26.2793 25.9352 27.0096 25.2049 27.9105 25.2049Z" fill="#BBEC6C"/>
<path d="M28.0759 25.2049H27.9105C27.7945 25.2049 27.6814 25.2172 27.5722 25.2402C28.3107 25.396 28.8651 26.0512 28.8651 26.8361V27.4364H29.707V26.8361C29.707 25.9352 28.9767 25.2049 28.0759 25.2049Z" fill="#A2E62E"/>
<path d="M10.7335 29.259H12.6471V27.4364H10.293V28.8185C10.293 29.0617 10.4902 29.259 10.7335 29.259Z" fill="#B6C4CF"/>
<path d="M11.8052 27.4364H12.6471V29.259H11.8052V27.4364Z" fill="#9FACBA"/>
<path d="M12.4168 25.2049H12.6471V27.4364H10.293V27.3287C10.293 26.1558 11.2438 25.2049 12.4168 25.2049Z" fill="#BBEC6C"/>
<path d="M12.4168 25.2049C12.2041 25.2049 11.9989 25.2365 11.8052 25.2947V27.4364H12.6472V25.2049H12.4168Z" fill="#A2E62E"/>
<path d="M21.3699 11.1152L24.114 13.7677C24.2988 13.9463 24.4032 14.1924 24.4032 14.4495V19.4147H21.3699V11.1152Z" fill="#60B7FF"/>
<path d="M24.114 13.7676L21.37 11.1152V11.929L23.2721 13.7676C23.4569 13.9463 23.5614 14.1924 23.5614 14.4495V19.4146H24.4033V14.4495C24.4032 14.1924 24.2989 13.9463 24.114 13.7676Z" fill="#26A6FE"/>
<path d="M18.253 29.259H14.7809V26.7701C14.7809 26.5771 14.9094 26.4078 15.0953 26.3559L17.8221 25.5947C18.0386 25.5342 18.253 25.697 18.253 25.9217V29.259Z" fill="#60B7FF"/>
<path d="M17.8221 25.5947L17.3492 25.7267C17.3877 25.7813 17.4111 25.8481 17.4111 25.9217V29.259H18.253V25.9217C18.253 25.697 18.0386 25.5342 17.8221 25.5947Z" fill="#26A6FE"/>
<path d="M25.8191 21.8312H22.946C22.8349 21.8312 22.7449 21.7412 22.7449 21.6301V20.9249C22.7449 20.8138 22.8349 20.7238 22.946 20.7238H25.8191C25.9302 20.7238 26.0202 20.8138 26.0202 20.9249V21.6301C26.0202 21.7412 25.9302 21.8312 25.8191 21.8312Z" fill="#C8EFFE"/>
<path d="M25.8191 20.7238H24.9771C25.0882 20.7238 25.1782 20.8139 25.1782 20.9249V21.6301C25.1782 21.7412 25.0882 21.8312 24.9771 21.8312H25.8191C25.9302 21.8312 26.0202 21.7412 26.0202 21.6301V20.9249C26.0202 20.8139 25.9302 20.7238 25.8191 20.7238Z" fill="#99E6FC"/>
<path d="M25.8191 24.059H22.946C22.8349 24.059 22.7449 23.9689 22.7449 23.8578V23.1526C22.7449 23.0415 22.8349 22.9515 22.946 22.9515H25.8191C25.9302 22.9515 26.0202 23.0415 26.0202 23.1526V23.8578C26.0202 23.9689 25.9302 24.059 25.8191 24.059Z" fill="#C8EFFE"/>
<path d="M25.8191 22.9515H24.9771C25.0882 22.9515 25.1782 23.0416 25.1782 23.1527V23.8578C25.1782 23.9689 25.0882 24.059 24.9771 24.059H25.8191C25.9302 24.059 26.0202 23.9689 26.0202 23.8578V23.1527C26.0202 23.0416 25.9302 22.9515 25.8191 22.9515Z" fill="#99E6FC"/>
<path d="M23.8963 26.3095H22.946C22.8349 26.3095 22.7449 26.2194 22.7449 26.1083V25.4031C22.7449 25.2921 22.8349 25.202 22.946 25.202H23.8963C24.0074 25.202 24.0975 25.2921 24.0975 25.4031V26.1083C24.0975 26.2194 24.0074 26.3095 23.8963 26.3095Z" fill="#C8EFFE"/>
<path d="M23.8963 25.202H23.0543C23.1654 25.202 23.2555 25.2921 23.2555 25.4032V26.1084C23.2555 26.2195 23.1654 26.3095 23.0543 26.3095H23.8963C24.0074 26.3095 24.0974 26.2195 24.0974 26.1084V25.4032C24.0974 25.2921 24.0074 25.202 23.8963 25.202Z" fill="#99E6FC"/>
<path d="M28.0759 24.9119C27.9197 24.9138 27.9369 24.9062 27.7293 24.9207V20.0644C27.7293 19.5447 27.3064 19.1218 26.7867 19.1218H24.407C24.4057 19.1218 24.4045 19.1217 24.4032 19.1217H21.6629V11.8058L23.9104 13.9783C24.0374 14.1011 24.1103 14.2728 24.1103 14.4495V18.0336C24.1103 18.1954 24.2414 18.3266 24.4032 18.3266C24.565 18.3266 24.6962 18.1954 24.6962 18.0336V14.4495C24.6962 14.1149 24.5582 13.7896 24.3176 13.557L21.5736 10.9045C21.5119 10.8467 21.3937 10.7947 21.2766 10.8375L16.3539 12.4922V11.3515C16.3576 10.8531 15.9104 10.4193 15.3902 10.4496C14.8927 10.4496 14.4879 10.8542 14.4879 11.3515V13.1194L13.2 13.5523C12.6941 13.7224 12.3541 14.1952 12.3541 14.729V24.9135C11.0504 24.9469 10 26.0171 10 27.3287V28.8184C10 29.2229 10.329 29.5519 10.7334 29.5519H29.2665C29.671 29.5519 30 29.2229 30 28.8184V26.836C30 25.7751 29.1368 24.9119 28.0759 24.9119ZM28.0759 25.4979C28.8137 25.4979 29.4141 26.0982 29.4141 26.8361V27.1434H26.5723V26.8361C26.5729 26.0352 27.2766 25.4285 28.0759 25.4979ZM27.1434 20.0644V25.0719C26.4631 25.3688 25.9863 26.0476 25.9863 26.836V27.1434H21.6629V19.7078H26.7867C26.9834 19.7078 27.1434 19.8678 27.1434 20.0644ZM15.0738 11.3515C15.0738 11.1773 15.2158 11.0355 15.3902 11.0355C15.5469 11.0125 15.7579 11.1354 15.768 11.3515V12.6891L15.0738 12.9224V11.3515ZM12.3542 25.4989V27.1434H10.5952C10.6864 26.241 11.4355 25.5299 12.3542 25.4989ZM10.5859 28.8185V27.7293H12.3542V28.966H10.7335C10.6521 28.966 10.5859 28.8998 10.5859 28.8185ZM12.9401 14.729C12.9401 14.4472 13.1196 14.1975 13.3867 14.1077L21.077 11.5227V13.119L14.6875 15.2668C14.5341 15.3183 14.4516 15.4845 14.5032 15.6379C14.5443 15.7603 14.6584 15.8376 14.7808 15.8376C14.8118 15.8376 14.8432 15.8326 14.8742 15.8222L21.077 13.7372V15.2277L14.6875 17.3754C14.5341 17.427 14.4516 17.5931 14.5032 17.7465C14.5443 17.8689 14.6584 17.9461 14.7808 17.9461C14.8118 17.9461 14.8432 17.9412 14.8742 17.9308L21.077 15.8458V17.3362L14.6875 19.484C14.5341 19.5355 14.4516 19.7017 14.5032 19.8551C14.5443 19.9775 14.6584 20.0547 14.7808 20.0547C14.8118 20.0547 14.8432 20.0498 14.8742 20.0394L21.077 17.9544V19.4137C21.077 19.4141 21.077 19.4145 21.077 19.4149V19.4449L14.6875 21.5926C14.5341 21.6442 14.4516 21.8103 14.5032 21.9636C14.5443 22.0861 14.6584 22.1633 14.7808 22.1633C14.8118 22.1633 14.8432 22.1584 14.8742 22.148L21.077 20.063V21.5534L17.0872 22.8945C16.9339 22.9461 16.8513 23.1122 16.9029 23.2656C16.944 23.388 17.0582 23.4653 17.1805 23.4653C17.2115 23.4653 17.243 23.4604 17.2739 23.4499L21.077 22.1716V28.9659H18.546V25.9217C18.546 25.7222 18.4548 25.5385 18.2959 25.4179C18.137 25.2972 17.9355 25.2588 17.7434 25.3125L15.0165 26.0737C14.7053 26.1606 14.488 26.4469 14.488 26.7701V28.9659H12.9401V14.729ZM15.0739 26.7701C15.0739 26.7088 15.1151 26.6546 15.1741 26.6381L16.224 26.345V28.966H15.0739L15.0739 26.7701ZM16.8099 28.966V26.1814L17.9009 25.8768C17.9156 25.8727 17.9294 25.8752 17.9416 25.8846C17.9538 25.8939 17.96 25.9064 17.96 25.9217V28.966H16.8099ZM21.6629 28.966V27.7293H25.9863V28.966H21.6629ZM29.4141 28.8185C29.4141 28.8999 29.3479 28.966 29.2666 28.966H26.5723V27.7293H29.4141V28.8185Z" fill="#101016"/>
<path d="M14.7808 24.2719C14.8117 24.2719 14.8432 24.267 14.8742 24.2566L15.9619 23.8909C16.1153 23.8394 16.1978 23.6733 16.1463 23.5199C16.0947 23.3665 15.9286 23.2839 15.7752 23.3355L14.6875 23.7012C14.5341 23.7527 14.4516 23.9188 14.5031 24.0722C14.5443 24.1946 14.6584 24.2719 14.7808 24.2719Z" fill="#101016"/>
<path d="M22.946 22.1242H25.8191C26.0915 22.1242 26.3132 21.9025 26.3132 21.6301V20.9249C26.3132 20.6525 26.0915 20.4308 25.8191 20.4308H22.946C22.6735 20.4308 22.4519 20.6525 22.4519 20.9249V21.6301C22.4519 21.9025 22.6735 22.1242 22.946 22.1242ZM23.0378 21.0168H25.7272V21.5382H23.0378V21.0168Z" fill="#101016"/>
<path d="M22.946 24.3519H25.8191C26.0915 24.3519 26.3132 24.1303 26.3132 23.8578V23.1526C26.3132 22.8802 26.0915 22.6586 25.8191 22.6586H22.946C22.6735 22.6586 22.4519 22.8802 22.4519 23.1526V23.8578C22.4519 24.1303 22.6735 24.3519 22.946 24.3519ZM23.0378 23.2445H25.7272V23.766H23.0378V23.2445Z" fill="#101016"/>
<path d="M22.946 26.6024H23.8963C24.1687 26.6024 24.3904 26.3808 24.3904 26.1084V25.4032C24.3904 25.1307 24.1687 24.9091 23.8963 24.9091H22.946C22.6735 24.9091 22.4519 25.1307 22.4519 25.4032V26.1084C22.4519 26.3808 22.6735 26.6024 22.946 26.6024ZM23.0378 25.495H23.8044V26.0165H23.0378V25.495Z" fill="#101016"/>
</g>
<defs>
<clipPath id="clip0_1982_4799">
<rect width="20" height="20" fill="white" transform="translate(10 10)"/>
</clipPath>
</defs>
</svg>
