<svg width="40" height="40" viewBox="0 0 40 40" fill="none" xmlns="http://www.w3.org/2000/svg">
<path d="M26.6538 29.6157H14.4158C13.6571 29.6157 13.0421 29.0007 13.0421 28.2421V11.7582C13.0421 10.9996 13.6571 10.3846 14.4158 10.3846H26.6538C27.4124 10.3846 28.0274 10.9996 28.0274 11.7582V28.2421C28.0274 29.0007 27.4124 29.6157 26.6538 29.6157Z" fill="#FCDD5E"/>
<path d="M26.6539 30H14.4158C13.4464 30 12.6576 29.2112 12.6576 28.2422V13.6738C12.6576 13.4612 12.8296 13.2892 13.0422 13.2892C13.2548 13.2892 13.4268 13.4612 13.4268 13.6738V28.2422C13.4268 28.7875 13.8704 29.2308 14.4158 29.2308H26.6539C27.1993 29.2308 27.6425 28.7875 27.6425 28.2422V11.7582C27.6425 11.2128 27.1993 10.7692 26.6539 10.7692H14.4158C13.8704 10.7692 13.4268 11.2128 13.4268 11.7582V12.0163C13.4268 12.2289 13.2548 12.4009 13.0422 12.4009C12.8296 12.4009 12.6576 12.2289 12.6576 12.0163V11.7582C12.6576 10.7888 13.4464 10 14.4158 10H26.6539C27.6229 10 28.4117 10.7888 28.4117 11.7582V28.2422C28.4117 29.2112 27.6229 30 26.6539 30Z" fill="#101016"/>
<path d="M14.1112 14.0585H11.9729C11.7603 14.0585 11.5883 13.8864 11.5883 13.6738C11.5883 13.4612 11.7603 13.2892 11.9729 13.2892H14.1112C14.3238 13.2892 14.4958 13.4612 14.4958 13.6738C14.4958 13.8864 14.3238 14.0585 14.1112 14.0585Z" fill="#101016"/>
<path d="M14.1112 17.2215H11.9729C11.7603 17.2215 11.5883 17.0494 11.5883 16.8368C11.5883 16.6242 11.7603 16.4522 11.9729 16.4522H14.1112C14.3238 16.4522 14.4958 16.6242 14.4958 16.8368C14.4958 17.0494 14.3238 17.2215 14.1112 17.2215Z" fill="#101016"/>
<path d="M14.1112 20.3844H11.9729C11.7603 20.3844 11.5883 20.2124 11.5883 19.9998C11.5883 19.7872 11.7603 19.6152 11.9729 19.6152H14.1112C14.3238 19.6152 14.4958 19.7872 14.4958 19.9998C14.4958 20.2124 14.3238 20.3844 14.1112 20.3844Z" fill="#101016"/>
<path d="M14.1112 23.5478H11.9729C11.7603 23.5478 11.5883 23.3758 11.5883 23.1632C11.5883 22.9506 11.7603 22.7786 11.9729 22.7786H14.1112C14.3238 22.7786 14.4958 22.9506 14.4958 23.1632C14.4958 23.3758 14.3238 23.5478 14.1112 23.5478Z" fill="#101016"/>
<path d="M14.1112 26.7112H11.9729C11.7603 26.7112 11.5883 26.5392 11.5883 26.3266C11.5883 26.114 11.7603 25.942 11.9729 25.942H14.1112C14.3238 25.942 14.4958 26.114 14.4958 26.3266C14.4958 26.5392 14.3238 26.7112 14.1112 26.7112Z" fill="#101016"/>
<path d="M24.6686 24.868H16.401C16.1728 24.868 15.9824 24.6783 15.9967 24.4505C16.1743 21.626 18.139 19.4012 20.5348 19.4012C22.9331 19.4012 24.8955 21.626 25.0729 24.4506C25.0872 24.6783 24.8968 24.868 24.6686 24.868Z" fill="white"/>
<path d="M24.6684 25.2523H16.4009C16.1823 25.2523 15.9712 25.1607 15.8217 25.0014C15.6737 24.8444 15.5994 24.6401 15.6129 24.4267C15.8037 21.3926 17.9657 19.0165 20.5345 19.0165C20.9905 19.0165 21.4427 19.0901 21.8769 19.2351C22.0782 19.3023 22.1872 19.5202 22.1203 19.7215C22.0527 19.9232 21.8356 20.0314 21.6335 19.9645C21.2774 19.8458 20.9078 19.7857 20.5345 19.7857C18.3706 19.7857 16.5459 21.8456 16.3806 24.4748L24.6684 24.4831C24.6016 23.0881 24.0404 21.7892 23.1487 20.9118C22.997 20.7631 22.9955 20.5189 23.1442 20.3679C23.2929 20.2162 23.5371 20.2154 23.6881 20.3634C24.7135 21.3723 25.358 22.8529 25.4565 24.4267C25.47 24.6401 25.3956 24.8444 25.2476 25.0014C25.0981 25.1607 24.887 25.2523 24.6684 25.2523Z" fill="#101016"/>
<path d="M20.5347 20.3922C21.9872 20.3922 23.1647 19.2147 23.1647 17.7622C23.1647 16.3097 21.9872 15.1322 20.5347 15.1322C19.0822 15.1322 17.9047 16.3097 17.9047 17.7622C17.9047 19.2147 19.0822 20.3922 20.5347 20.3922Z" fill="white"/>
<path d="M20.5345 20.7766C18.8724 20.7766 17.5202 19.4244 17.5202 17.7623C17.5202 16.0999 18.8724 14.7477 20.5345 14.7477C22.1969 14.7477 23.5491 16.0999 23.5491 17.7623C23.5491 19.4244 22.1969 20.7766 20.5345 20.7766ZM20.5345 15.5169C19.2965 15.5169 18.2894 16.5243 18.2894 17.7623C18.2894 19.0003 19.2965 20.0073 20.5345 20.0073C21.7725 20.0073 22.7798 19.0003 22.7798 17.7623C22.7798 16.5243 21.7725 15.5169 20.5345 15.5169Z" fill="#101016"/>
</svg>
