<svg width="40" height="40" viewBox="0 0 40 40" fill="none" xmlns="http://www.w3.org/2000/svg">
<g clip-path="url(#clip0_1982_4836)">
<path d="M29.0397 19.4198C29.0604 21.2688 28.5258 22.9918 27.5924 24.4324C27.2594 24.9464 27.8802 27.0402 28.4096 28.5815C28.6159 29.1819 27.9868 29.7267 27.4228 29.4353C25.9382 28.6682 23.8974 27.6996 23.4093 27.8985C22.1672 28.4046 20.7874 28.6425 19.3417 28.5401C14.8256 28.2204 11.2023 24.5181 10.9718 19.9965C10.7042 14.7478 14.9161 10.415 20.1222 10.4837C24.9904 10.548 28.9853 14.5514 29.0397 19.4198Z" fill="#7D92FB"/>
<path d="M18.3218 24.6183V19.4639C18.3218 18.835 18.8316 18.3251 19.4605 18.3251H20.5394C21.1683 18.3251 21.6781 18.835 21.6781 19.4639V24.6183C21.6781 25.2472 21.1683 25.757 20.5394 25.757H19.4605C18.8316 25.7571 18.3218 25.2472 18.3218 24.6183Z" fill="#FEFDFF"/>
<path d="M21.6833 15.4073C21.6926 14.4805 20.9487 13.7216 20.0219 13.7123C19.0951 13.703 18.3362 14.4469 18.327 15.3737C18.3177 16.3006 19.0615 17.0595 19.9883 17.0687C20.9152 17.078 21.674 16.3341 21.6833 15.4073Z" fill="#FEFDFF"/>
<path d="M29.2775 19.4171C29.2218 14.4259 25.1161 10.3117 20.1253 10.2458C20.0826 10.2453 20.0402 10.245 19.9977 10.245C14.7058 10.245 10.4614 14.6612 10.7343 20.0086C10.9723 24.6779 14.6655 28.4476 19.325 28.7775C20.7705 28.8796 22.1752 28.6582 23.4989 28.1188C23.5484 28.0994 24.0707 27.9712 27.3136 29.6467C27.4541 29.7194 27.603 29.755 27.7502 29.755C27.9684 29.755 28.1827 29.6766 28.3598 29.5236C28.6571 29.2669 28.7625 28.8764 28.6348 28.5043C27.5143 25.2432 27.7362 24.648 27.792 24.5618C28.7846 23.0302 29.2982 21.2512 29.2775 19.4171ZM28.1846 28.6589C28.2603 28.8792 28.1642 29.0639 28.0489 29.1634C27.9 29.2916 27.7071 29.3145 27.5322 29.224C24.9036 27.866 23.9575 27.6311 23.5684 27.6311C23.435 27.6311 23.3669 27.6587 23.3194 27.6783C22.0636 28.19 20.7315 28.4002 19.3584 28.3028C14.9385 27.99 11.4352 24.4138 11.2094 19.9844C10.9467 14.8341 15.0859 10.649 20.119 10.7217C24.8537 10.7841 28.7487 14.6873 28.8017 19.4224C28.8212 21.1627 28.334 22.8502 27.3928 24.303C27.2789 24.4788 26.9324 25.0136 28.1846 28.6589Z" fill="#101016"/>
<path d="M20.5395 18.0872H19.4605C18.7014 18.0872 18.0839 18.7049 18.0839 19.464V24.6182C18.0839 25.3773 18.7014 25.995 19.4605 25.995H20.5395C21.2986 25.995 21.916 25.3773 21.916 24.6182V19.464C21.916 18.7049 21.2986 18.0872 20.5395 18.0872ZM21.4402 24.6182C21.4402 25.1151 21.0361 25.5192 20.5395 25.5192H19.4605C18.9638 25.5192 18.5597 25.1151 18.5597 24.6182V19.464C18.5597 18.9671 18.9638 18.563 19.4605 18.563H20.5395C21.0361 18.563 21.4402 18.9671 21.4402 19.464V24.6182Z" fill="#101016"/>
<path d="M20.0001 13.4722C18.9436 13.4722 18.0839 14.3318 18.0839 15.3884C18.0839 16.4449 18.9436 17.3045 20.0001 17.3045C21.0566 17.3045 21.9161 16.4449 21.9161 15.3884C21.9161 14.3318 21.0566 13.4722 20.0001 13.4722ZM20.0001 16.8287C19.2059 16.8287 18.5598 16.1826 18.5598 15.3884C18.5598 14.5941 19.2059 13.948 20.0001 13.948C20.7942 13.948 21.4403 14.5941 21.4403 15.3884C21.4403 16.1826 20.7942 16.8287 20.0001 16.8287Z" fill="#101016"/>
</g>
<defs>
<clipPath id="clip0_1982_4836">
<rect width="20" height="20" fill="white" transform="translate(10 10)"/>
</clipPath>
</defs>
</svg>
