<svg width="18" height="20" viewBox="0 0 18 20" fill="none" xmlns="http://www.w3.org/2000/svg">
<path d="M15.2611 4.48486L17.6997 15.7446C17.8481 16.4301 17.4128 17.1062 16.7273 17.2546L5.46755 19.6932C4.78205 19.8417 4.10599 19.4063 3.95753 18.7209L1.51891 7.46111C1.37045 6.77561 1.8058 6.09955 2.4913 5.95109L13.751 3.51247C14.4365 3.36401 15.1126 3.79936 15.2611 4.48486Z" fill="#53C496"/>
<path opacity="0.15" d="M8.85075 18.9576L5.46927 19.693C4.78057 19.8432 4.10736 19.4082 3.95719 18.7195L3.48598 16.5549L1.51818 7.46172C1.36801 6.77817 1.80816 6.09981 2.49171 5.94961L7.7322 4.81555C6.72245 6.55032 6.12174 8.73557 6.12174 11.1073C6.12174 13.1113 6.55155 14.9755 7.29205 16.5549C7.7115 17.4611 8.2397 18.2741 8.85075 18.9576Z" fill="black"/>
<path d="M5.19898 20C4.48601 20 3.84277 19.5041 3.68596 18.7797L1.24729 7.51985C1.15993 7.11589 1.23508 6.70189 1.45889 6.35436C1.68271 6.00683 2.02862 5.76728 2.43258 5.67965L13.6924 3.24097C14.5226 3.0611 15.3517 3.59176 15.5324 4.42599L17.9708 15.6859C18.0587 16.0901 17.9838 16.5041 17.7597 16.8513C17.5362 17.1991 17.19 17.439 16.7858 17.5258L5.52643 19.9647C5.41656 19.9886 5.30695 20 5.19898 20ZM14.0202 3.76159C13.9507 3.76159 13.8802 3.76891 13.8096 3.78411L2.55032 6.22278C2.29123 6.27894 2.06958 6.4325 1.92607 6.65523C1.78255 6.87797 1.73426 7.14329 1.79042 7.40211L4.2291 18.6625C4.34494 19.197 4.87261 19.5388 5.40896 19.4221L16.6686 16.9832C16.9274 16.9268 17.1493 16.7738 17.2925 16.5508C17.4363 16.3277 17.4841 16.0624 17.4282 15.8031L14.9898 4.54373C14.8889 4.07955 14.4765 3.76159 14.0202 3.76159Z" fill="#101016"/>
<path d="M14.3319 3.76543V11.0768C14.3319 11.4136 14.1981 11.7366 13.9599 11.9748L9.75045 16.1843C9.51229 16.4224 9.18927 16.5562 8.85246 16.5562H1.54107C0.839696 16.5562 0.271118 15.9876 0.271118 15.2863V3.76546C0.271118 3.06407 0.839709 2.49548 1.5411 2.49548H13.0619C13.7633 2.49548 14.3319 3.06405 14.3319 3.76543Z" fill="#FFDC6E"/>
<path opacity="0.15" d="M9.61713 2.49565C8.89218 3.11706 8.25522 3.90418 7.7322 4.81554C6.72245 6.55031 6.12174 8.73556 6.12174 11.1073C6.12174 13.1113 6.55155 14.9755 7.29205 16.5549H1.53891C0.839809 16.5549 0.270203 15.9853 0.270203 15.2862V3.76435C0.270203 3.06526 0.839809 2.49565 1.53891 2.49565H9.61713Z" fill="black"/>
<path d="M8.85252 16.834H1.54109C0.687594 16.834 -0.00665283 16.14 -0.00665283 15.2865V3.76538C-0.00665283 2.91188 0.687594 2.21764 1.54109 2.21764H13.0619C13.9154 2.21764 14.6094 2.91188 14.6094 3.76538V11.0771C14.6094 11.4846 14.4445 11.8834 14.1563 12.1715L9.94692 16.3809C9.65501 16.6728 9.26624 16.834 8.85252 16.834ZM1.54109 2.77325C0.99416 2.77325 0.548963 3.21845 0.548963 3.76538V15.2865C0.548963 15.8334 0.99416 16.2784 1.54109 16.2784H8.85252C9.11784 16.2784 9.36689 16.1753 9.55409 15.9881L13.7635 11.7786C13.948 11.5942 14.0538 11.3386 14.0538 11.0771V3.76538C14.0538 3.21845 13.6089 2.77325 13.0619 2.77325L1.54109 2.77325Z" fill="#101016"/>
<path d="M12.0267 6.75045H2.57609C2.42253 6.75045 2.29828 6.6262 2.29828 6.47265C2.29828 6.31909 2.42253 6.19484 2.57609 6.19484H12.0267C12.1802 6.19484 12.3045 6.31909 12.3045 6.47265C12.3045 6.6262 12.1802 6.75045 12.0267 6.75045Z" fill="#101016"/>
<path d="M12.0267 9.80361H2.57609C2.42253 9.80361 2.29828 9.67936 2.29828 9.52581C2.29828 9.37225 2.42253 9.248 2.57609 9.248H12.0267C12.1802 9.248 12.3045 9.37225 12.3045 9.52581C12.3045 9.67936 12.1802 9.80361 12.0267 9.80361Z" fill="#101016"/>
<path d="M6.75078 12.8568H2.57609C2.42253 12.8568 2.29828 12.7325 2.29828 12.579C2.29828 12.4254 2.42253 12.3012 2.57609 12.3012H6.75078C6.90434 12.3012 7.02859 12.4254 7.02859 12.579C7.02859 12.7325 6.90434 12.8568 6.75078 12.8568Z" fill="#101016"/>
<path d="M14.2142 11.6028C14.1553 11.7402 14.067 11.8677 13.9591 11.9756L9.75121 16.1835C9.6433 16.2914 9.51579 16.3797 9.37848 16.4385V12.5592C9.37848 12.0295 9.80515 11.6028 10.3348 11.6028H14.2142Z" fill="#FFEDAD"/>
<path d="M9.37858 16.7162C9.32486 16.7162 9.27169 16.7005 9.22557 16.6701C9.1477 16.6186 9.10077 16.5317 9.10077 16.4384V12.5594C9.10077 11.879 9.65448 11.325 10.3349 11.325H14.2144C14.3078 11.325 14.3951 11.3722 14.4467 11.4504C14.4977 11.528 14.5063 11.6267 14.4694 11.713C14.3978 11.8796 14.2893 12.038 14.1553 12.172L9.94749 16.3798C9.81293 16.5144 9.65395 16.6229 9.48764 16.694C9.45264 16.7086 9.41547 16.7162 9.37858 16.7162ZM10.3349 11.8807C9.96051 11.8807 9.65666 12.185 9.65666 12.5594V15.885L13.661 11.8807H10.3349Z" fill="#101016"/>
<path d="M7.65839 3.87571C7.46688 4.06722 7.15633 4.06722 6.96481 3.87571L5.67891 2.58981C5.4874 2.3983 5.4874 2.08775 5.67891 1.89624C5.87043 1.70472 6.18098 1.70472 6.37249 1.89624L7.65839 3.18213C7.8499 3.37365 7.8499 3.6842 7.65839 3.87571Z" fill="#F0F0FC"/>
<path d="M7.31152 4.29685C7.11483 4.29685 6.91814 4.22197 6.76839 4.07222L5.48244 2.78627C5.18294 2.48676 5.18294 1.99925 5.48244 1.69973C5.77246 1.40972 6.27843 1.40917 6.56898 1.69973L7.85493 2.98568C8.00007 3.13082 8.07983 3.32371 8.07983 3.52881C8.07983 3.73418 8.00007 3.92707 7.85493 4.07222C7.70517 4.22197 7.50849 4.29685 7.31152 4.29685ZM6.02585 2.03045C5.97132 2.03045 5.91679 2.05106 5.87529 2.09257C5.79227 2.17559 5.79227 2.31042 5.87529 2.39344L7.16123 3.67938C7.24452 3.76267 7.37935 3.7624 7.46209 3.67938C7.54511 3.59637 7.54511 3.46153 7.46209 3.37852L6.17615 2.09257C6.13464 2.05106 6.08011 2.03045 6.02585 2.03045Z" fill="#101016"/>
<path d="M5.64313 3.44375C6.51764 3.44375 7.22657 2.73482 7.22657 1.86031C7.22657 0.9858 6.51764 0.276871 5.64313 0.276871C4.76862 0.276871 4.05969 0.9858 4.05969 1.86031C4.05969 2.73482 4.76862 3.44375 5.64313 3.44375Z" fill="#F7524B"/>
<path d="M5.64334 3.72062C5.16668 3.72062 4.69001 3.53939 4.32729 3.1764C3.60184 2.45096 3.60184 1.27 4.32729 0.544287C5.05219 -0.181157 6.23314 -0.181701 6.95913 0.544287C7.31073 0.895887 7.50443 1.36333 7.50443 1.86034C7.50443 2.35763 7.31073 2.82507 6.95913 3.1764C6.5964 3.53912 6.11974 3.72062 5.64334 3.72062ZM5.64334 0.555409C5.30884 0.555409 4.9746 0.682646 4.72012 0.937121C4.21117 1.44634 4.21117 2.27461 4.72012 2.78356C5.22935 3.29251 6.05761 3.29306 6.56629 2.78356C6.8129 2.53695 6.94882 2.20923 6.94882 1.86034C6.94882 1.51173 6.8129 1.18373 6.56629 0.937124C6.31181 0.682646 5.97758 0.555409 5.64334 0.555409Z" fill="#101016"/>
</svg>
