<svg width="32" height="32" viewBox="0 0 32 32" fill="none" xmlns="http://www.w3.org/2000/svg">
<path d="M16 12.2933V14.5133M16.0133 9.33334C13.56 9.33334 11.5733 11.32 11.5733 13.7733V15.1733C11.5733 15.6267 11.3867 16.3067 11.1533 16.6933L10.3067 18.1067C9.78666 18.98 10.1467 19.9533 11.1067 20.2733C14.2942 21.3333 17.7391 21.3333 20.9267 20.2733C21.137 20.2032 21.3289 20.0867 21.4881 19.9324C21.6474 19.7781 21.7699 19.59 21.8467 19.382C21.9235 19.174 21.9526 18.9514 21.9318 18.7307C21.911 18.5099 21.8409 18.2967 21.7267 18.1067L20.88 16.6933C20.6467 16.3067 20.46 15.62 20.46 15.1733V13.7733C20.4533 11.3333 18.4533 9.33334 16.0133 9.33334Z" stroke="currentColor" stroke-miterlimit="10" stroke-linecap="round"/>
<path d="M18.22 20.5467C18.22 21.7667 17.22 22.7667 16 22.7667C15.3934 22.7667 14.8334 22.5133 14.4334 22.1133C14.0334 21.7133 13.78 21.1533 13.78 20.5467" stroke="currentColor" stroke-miterlimit="10"/>
</svg>
