<svg width="18" height="18" viewBox="0 0 18 18" fill="none" xmlns="http://www.w3.org/2000/svg">
<g clip-path="url(#clip0_1982_4895)">
<path d="M15.1368 15.0481H2.86266C2.58381 15.0481 2.3461 14.847 2.29924 14.5727L1.00782 6.95335C0.972396 6.74078 1.05811 6.52707 1.22954 6.39907C1.40096 6.26992 1.62953 6.24821 1.82382 6.34535L5.53235 8.17391L8.49919 2.77281C8.69918 2.40939 9.30032 2.40939 9.50032 2.77281L12.4671 8.17391L16.1757 6.34535C16.3677 6.24821 16.5974 6.26992 16.77 6.39907C16.9414 6.52707 17.0283 6.74192 16.9917 6.95335L15.7003 14.5727C15.6534 14.847 15.4146 15.0481 15.1368 15.0481Z" fill="#FCC34A"/>
</g>
<defs>
<clipPath id="clip0_1982_4895">
<rect width="18" height="18" fill="white"/>
</clipPath>
</defs>
</svg>
